<mxfile host="app.diagrams.net" agent="Mozilla/5.0 (Windows NT 10.0; Win64; x64) AppleWebKit/537.36 (KHTML, like Gecko) Chrome/132.0.0.0 Safari/537.36" version="26.0.10">
  <diagram id="l8hXMBHkgcEJcSW0mbfh" name="Page-1">
    <mxGraphModel dx="2440" dy="1339" grid="1" gridSize="10" guides="1" tooltips="1" connect="1" arrows="1" fold="1" page="1" pageScale="1" pageWidth="1169" pageHeight="827" math="0" shadow="0">
      <root>
        <mxCell id="0" />
        <mxCell id="1" parent="0" />
        <mxCell id="8--HhbSZYtI3ddgJnD71-37" style="edgeStyle=none;rounded=0;orthogonalLoop=1;jettySize=auto;html=1;sourcePerimeterSpacing=5;endArrow=none;endFill=0;targetPerimeterSpacing=5;" parent="1" target="8--HhbSZYtI3ddgJnD71-10" edge="1">
          <mxGeometry relative="1" as="geometry">
            <mxPoint x="273" y="324.6771428571428" as="sourcePoint" />
          </mxGeometry>
        </mxCell>
        <mxCell id="8--HhbSZYtI3ddgJnD71-10" value="Storage" style="shape=image;verticalLabelPosition=bottom;verticalAlign=top;imageAspect=0;aspect=fixed;image=data:image/svg+xml,PHN2ZyB4bWxucz0iaHR0cDovL3d3dy53My5vcmcvMjAwMC9zdmciIHZlcnNpb249IjEiIHZpZXdCb3g9IjAgMCA0OCA0OCIgZW5hYmxlLWJhY2tncm91bmQ9Im5ldyAwIDAgNDggNDgiPiYjeGE7ICAgIDxyZWN0IHg9IjEyIiB5PSI0NCIgZmlsbD0iIzI2MzIzOCIgd2lkdGg9IjQiIGhlaWdodD0iMiIvPiYjeGE7ICAgIDxyZWN0IHg9IjMyIiB5PSI0NCIgZmlsbD0iIzI2MzIzOCIgd2lkdGg9IjQiIGhlaWdodD0iMiIvPiYjeGE7ICAgIDxwYXRoIGZpbGw9IiM2MDdEOEIiIGQ9Ik04LDQxVjdjMC0yLjIsMS44LTQsNC00aDI0YzIuMiwwLDQsMS44LDQsNHYzNGMwLDIuMi0xLjgsNC00LDRIMTJDOS44LDQ1LDgsNDMuMiw4LDQxeiIvPiYjeGE7ICAgIDxwYXRoIGZpbGw9IiNCMEJFQzUiIGQ9Ik0xMiwxN1Y4YzAtMC42LDAuNC0xLDEtMWgyMmMwLjYsMCwxLDAuNCwxLDF2OUgxMnoiLz4mI3hhOyAgICA8cmVjdCB4PSIxMiIgeT0iMTkiIGZpbGw9IiNCMEJFQzUiIHdpZHRoPSIyNCIgaGVpZ2h0PSIxMCIvPiYjeGE7ICAgIDxwYXRoIGZpbGw9IiNCMEJFQzUiIGQ9Ik0xMiw0MHYtOWgyNHY5YzAsMC42LTAuNCwxLTEsMUgxM0MxMi40LDQxLDEyLDQwLjYsMTIsNDB6Ii8+JiN4YTsgICAgPHJlY3QgeD0iMjAiIHk9IjExIiBmaWxsPSIjNTQ2RTdBIiB3aWR0aD0iOCIgaGVpZ2h0PSIyIi8+JiN4YTsgICAgPHJlY3QgeD0iMjAiIHk9IjIzIiBmaWxsPSIjNTQ2RTdBIiB3aWR0aD0iOCIgaGVpZ2h0PSIyIi8+JiN4YTsgICAgPHJlY3QgeD0iMjAiIHk9IjM1IiBmaWxsPSIjNTQ2RTdBIiB3aWR0aD0iOCIgaGVpZ2h0PSIyIi8+JiN4YTs8L3N2Zz4=;labelBackgroundColor=#ffffff;fontColor=none;noLabel=1;" parent="1" vertex="1">
          <mxGeometry x="570" y="120" width="48" height="48" as="geometry" />
        </mxCell>
        <mxCell id="A5XyS65-MMVEptwIIjuN-5" style="edgeStyle=none;rounded=0;orthogonalLoop=1;jettySize=auto;html=1;sourcePerimeterSpacing=5;endArrow=none;endFill=0;targetPerimeterSpacing=5;exitX=0;exitY=0;exitDx=0;exitDy=0;" parent="1" source="axStD_DV7LErkX4Y_dTy-29" target="8--HhbSZYtI3ddgJnD71-10" edge="1">
          <mxGeometry relative="1" as="geometry">
            <mxPoint x="915" y="324.6771428571428" as="sourcePoint" />
            <mxPoint x="777" y="200" as="targetPoint" />
          </mxGeometry>
        </mxCell>
        <mxCell id="A5XyS65-MMVEptwIIjuN-8" style="edgeStyle=none;rounded=0;orthogonalLoop=1;jettySize=auto;html=1;sourcePerimeterSpacing=5;endArrow=none;endFill=0;targetPerimeterSpacing=5;" parent="1" target="8--HhbSZYtI3ddgJnD71-10" edge="1">
          <mxGeometry relative="1" as="geometry">
            <mxPoint x="491.4000000000001" y="315" as="sourcePoint" />
            <mxPoint x="587" y="223" as="targetPoint" />
          </mxGeometry>
        </mxCell>
        <mxCell id="A5XyS65-MMVEptwIIjuN-12" style="edgeStyle=none;rounded=0;orthogonalLoop=1;jettySize=auto;html=1;sourcePerimeterSpacing=5;endArrow=none;endFill=0;targetPerimeterSpacing=5;" parent="1" target="8--HhbSZYtI3ddgJnD71-10" edge="1">
          <mxGeometry relative="1" as="geometry">
            <mxPoint x="713.3908629441626" y="312" as="sourcePoint" />
            <mxPoint x="777" y="190" as="targetPoint" />
          </mxGeometry>
        </mxCell>
        <mxCell id="A5XyS65-MMVEptwIIjuN-15" style="edgeStyle=none;rounded=0;orthogonalLoop=1;jettySize=auto;html=1;sourcePerimeterSpacing=5;endArrow=none;endFill=0;targetPerimeterSpacing=5;" parent="1" edge="1">
          <mxGeometry relative="1" as="geometry">
            <mxPoint x="135" y="446.050724637681" as="sourcePoint" />
            <mxPoint x="215" y="368.94927536231876" as="targetPoint" />
          </mxGeometry>
        </mxCell>
        <mxCell id="A5XyS65-MMVEptwIIjuN-17" style="edgeStyle=none;rounded=0;orthogonalLoop=1;jettySize=auto;html=1;sourcePerimeterSpacing=5;endArrow=none;endFill=0;targetPerimeterSpacing=5;" parent="1" edge="1">
          <mxGeometry relative="1" as="geometry">
            <mxPoint x="281.5338345864666" y="445" as="sourcePoint" />
            <mxPoint x="254.4661654135341" y="369.9999999999998" as="targetPoint" />
          </mxGeometry>
        </mxCell>
        <mxCell id="A5XyS65-MMVEptwIIjuN-19" style="edgeStyle=none;rounded=0;orthogonalLoop=1;jettySize=auto;html=1;sourcePerimeterSpacing=5;endArrow=none;endFill=0;targetPerimeterSpacing=5;" parent="1" edge="1">
          <mxGeometry relative="1" as="geometry">
            <mxPoint x="419.5049504950498" y="445" as="sourcePoint" />
            <mxPoint x="458" y="373" as="targetPoint" />
          </mxGeometry>
        </mxCell>
        <mxCell id="A5XyS65-MMVEptwIIjuN-21" style="edgeStyle=none;rounded=0;orthogonalLoop=1;jettySize=auto;html=1;sourcePerimeterSpacing=5;endArrow=none;endFill=0;targetPerimeterSpacing=5;" parent="1" edge="1">
          <mxGeometry relative="1" as="geometry">
            <mxPoint x="511.37623762376256" y="445" as="sourcePoint" />
            <mxPoint x="485" y="373" as="targetPoint" />
          </mxGeometry>
        </mxCell>
        <mxCell id="A5XyS65-MMVEptwIIjuN-23" style="edgeStyle=none;rounded=0;orthogonalLoop=1;jettySize=auto;html=1;sourcePerimeterSpacing=5;endArrow=none;endFill=0;targetPerimeterSpacing=5;" parent="1" edge="1">
          <mxGeometry relative="1" as="geometry">
            <mxPoint x="694.1881188118814" y="445" as="sourcePoint" />
            <mxPoint x="717" y="373" as="targetPoint" />
          </mxGeometry>
        </mxCell>
        <mxCell id="A5XyS65-MMVEptwIIjuN-25" style="edgeStyle=none;rounded=0;orthogonalLoop=1;jettySize=auto;html=1;sourcePerimeterSpacing=5;endArrow=none;endFill=0;targetPerimeterSpacing=5;" parent="1" edge="1">
          <mxGeometry relative="1" as="geometry">
            <mxPoint x="780.7307692307695" y="445" as="sourcePoint" />
            <mxPoint x="749" y="370" as="targetPoint" />
          </mxGeometry>
        </mxCell>
        <mxCell id="A5XyS65-MMVEptwIIjuN-27" style="edgeStyle=none;rounded=0;orthogonalLoop=1;jettySize=auto;html=1;sourcePerimeterSpacing=5;endArrow=none;endFill=0;targetPerimeterSpacing=5;entryX=0.25;entryY=1;entryDx=0;entryDy=0;" parent="1" edge="1">
          <mxGeometry relative="1" as="geometry">
            <mxPoint x="933.4678899082569" y="445" as="sourcePoint" />
            <mxPoint x="932" y="364.9999999999998" as="targetPoint" />
          </mxGeometry>
        </mxCell>
        <mxCell id="A5XyS65-MMVEptwIIjuN-29" style="edgeStyle=none;rounded=0;orthogonalLoop=1;jettySize=auto;html=1;sourcePerimeterSpacing=5;endArrow=none;endFill=0;targetPerimeterSpacing=5;entryX=0.75;entryY=1;entryDx=0;entryDy=0;" parent="1" edge="1">
          <mxGeometry relative="1" as="geometry">
            <mxPoint x="1055" y="449.3046875" as="sourcePoint" />
            <mxPoint x="956" y="364.9999999999998" as="targetPoint" />
          </mxGeometry>
        </mxCell>
        <mxCell id="A5XyS65-MMVEptwIIjuN-31" value="&lt;font style=&quot;font-size: 25px;&quot;&gt;&lt;b&gt;instituto.local&lt;/b&gt;&lt;/font&gt;" style="text;strokeColor=none;align=center;fillColor=none;html=1;verticalAlign=middle;whiteSpace=wrap;rounded=0;" parent="1" vertex="1">
          <mxGeometry x="570" y="80" width="60" height="30" as="geometry" />
        </mxCell>
        <mxCell id="A5XyS65-MMVEptwIIjuN-32" value="&lt;font style=&quot;font-size: 25px;&quot;&gt;&lt;b&gt;ASIR&lt;/b&gt;&lt;/font&gt;" style="text;strokeColor=none;align=center;fillColor=none;html=1;verticalAlign=middle;whiteSpace=wrap;rounded=0;" parent="1" vertex="1">
          <mxGeometry x="198" y="280" width="60" height="30" as="geometry" />
        </mxCell>
        <mxCell id="A5XyS65-MMVEptwIIjuN-34" value="&lt;font style=&quot;font-size: 25px;&quot;&gt;&lt;b&gt;DAW&lt;/b&gt;&lt;/font&gt;" style="text;strokeColor=none;align=center;fillColor=none;html=1;verticalAlign=middle;whiteSpace=wrap;rounded=0;" parent="1" vertex="1">
          <mxGeometry x="420" y="284" width="60" height="30" as="geometry" />
        </mxCell>
        <mxCell id="A5XyS65-MMVEptwIIjuN-35" value="&lt;font style=&quot;font-size: 25px;&quot;&gt;&lt;b&gt;DAM&lt;/b&gt;&lt;/font&gt;" style="text;strokeColor=none;align=center;fillColor=none;html=1;verticalAlign=middle;whiteSpace=wrap;rounded=0;" parent="1" vertex="1">
          <mxGeometry x="714" y="284" width="60" height="30" as="geometry" />
        </mxCell>
        <mxCell id="A5XyS65-MMVEptwIIjuN-36" value="&lt;font style=&quot;font-size: 25px;&quot;&gt;&lt;b&gt;SMR&lt;/b&gt;&lt;/font&gt;" style="text;strokeColor=none;align=center;fillColor=none;html=1;verticalAlign=middle;whiteSpace=wrap;rounded=0;" parent="1" vertex="1">
          <mxGeometry x="920" y="280" width="60" height="30" as="geometry" />
        </mxCell>
        <mxCell id="A5XyS65-MMVEptwIIjuN-37" value="&lt;font style=&quot;font-size: 25px;&quot;&gt;&lt;b&gt;1ยบ&lt;/b&gt;&lt;/font&gt;" style="text;strokeColor=none;align=center;fillColor=none;html=1;verticalAlign=middle;whiteSpace=wrap;rounded=0;" parent="1" vertex="1">
          <mxGeometry x="76" y="420" width="60" height="30" as="geometry" />
        </mxCell>
        <mxCell id="A5XyS65-MMVEptwIIjuN-38" value="&lt;font style=&quot;font-size: 25px;&quot;&gt;&lt;b&gt;2ยบ&lt;/b&gt;&lt;/font&gt;" style="text;strokeColor=none;align=center;fillColor=none;html=1;verticalAlign=middle;whiteSpace=wrap;rounded=0;" parent="1" vertex="1">
          <mxGeometry x="280" y="420" width="60" height="30" as="geometry" />
        </mxCell>
        <mxCell id="A5XyS65-MMVEptwIIjuN-39" value="&lt;font style=&quot;font-size: 25px;&quot;&gt;&lt;b&gt;1ยบ&lt;/b&gt;&lt;/font&gt;" style="text;strokeColor=none;align=center;fillColor=none;html=1;verticalAlign=middle;whiteSpace=wrap;rounded=0;" parent="1" vertex="1">
          <mxGeometry x="360" y="420" width="60" height="30" as="geometry" />
        </mxCell>
        <mxCell id="A5XyS65-MMVEptwIIjuN-40" value="&lt;font style=&quot;font-size: 25px;&quot;&gt;&lt;b&gt;1ยบ&lt;/b&gt;&lt;/font&gt;" style="text;strokeColor=none;align=center;fillColor=none;html=1;verticalAlign=middle;whiteSpace=wrap;rounded=0;" parent="1" vertex="1">
          <mxGeometry x="629" y="420" width="60" height="30" as="geometry" />
        </mxCell>
        <mxCell id="A5XyS65-MMVEptwIIjuN-41" value="&lt;font style=&quot;font-size: 25px;&quot;&gt;&lt;b&gt;1ยบ&lt;/b&gt;&lt;/font&gt;" style="text;strokeColor=none;align=center;fillColor=none;html=1;verticalAlign=middle;whiteSpace=wrap;rounded=0;" parent="1" vertex="1">
          <mxGeometry x="880" y="420" width="60" height="30" as="geometry" />
        </mxCell>
        <mxCell id="A5XyS65-MMVEptwIIjuN-42" value="&lt;font style=&quot;font-size: 25px;&quot;&gt;&lt;b&gt;2ยบ&lt;/b&gt;&lt;/font&gt;" style="text;strokeColor=none;align=center;fillColor=none;html=1;verticalAlign=middle;whiteSpace=wrap;rounded=0;" parent="1" vertex="1">
          <mxGeometry x="510" y="420" width="60" height="30" as="geometry" />
        </mxCell>
        <mxCell id="A5XyS65-MMVEptwIIjuN-43" value="&lt;font style=&quot;font-size: 25px;&quot;&gt;&lt;b&gt;2ยบ&lt;/b&gt;&lt;/font&gt;" style="text;strokeColor=none;align=center;fillColor=none;html=1;verticalAlign=middle;whiteSpace=wrap;rounded=0;" parent="1" vertex="1">
          <mxGeometry x="779" y="420" width="60" height="30" as="geometry" />
        </mxCell>
        <mxCell id="A5XyS65-MMVEptwIIjuN-44" value="&lt;font style=&quot;font-size: 25px;&quot;&gt;&lt;b&gt;2ยบ&lt;/b&gt;&lt;/font&gt;" style="text;strokeColor=none;align=center;fillColor=none;html=1;verticalAlign=middle;whiteSpace=wrap;rounded=0;" parent="1" vertex="1">
          <mxGeometry x="1060" y="420" width="60" height="30" as="geometry" />
        </mxCell>
        <mxCell id="A5XyS65-MMVEptwIIjuN-45" value="" style="shape=image;verticalLabelPosition=bottom;verticalAlign=top;imageAspect=0;aspect=fixed;image=data:image/svg+xml,PHN2ZyB4bWxucz0iaHR0cDovL3d3dy53My5vcmcvMjAwMC9zdmciIHZlcnNpb249IjEiIHZpZXdCb3g9IjAgMCA0OCA0OCIgZW5hYmxlLWJhY2tncm91bmQ9Im5ldyAwIDAgNDggNDgiPiYjeGE7ICAgIDxwYXRoIGZpbGw9IiM1NDZFN0EiIGQ9Ik00NCwzMEg0VjExYzAtMi4yLDEuOC00LDQtNGgzMmMyLjIsMCw0LDEuOCw0LDRWMzB6Ii8+JiN4YTsgICAgPHBhdGggZmlsbD0iIzY0QjVGNiIgZD0iTTQwLDI3SDhjLTAuNiwwLTEtMC40LTEtMVYxMWMwLTAuNiwwLjQtMSwxLTFoMzJjMC42LDAsMSwwLjQsMSwxdjE1QzQxLDI2LjYsNDAuNiwyNyw0MCwyN3oiLz4mI3hhOyAgICA8cGF0aCBmaWxsPSIjNzg5MDlDIiBkPSJNNDAsNDFIOGMtMi4yLDAtNC0xLjgtNC00di03aDQwdjdDNDQsMzkuMiw0Mi4yLDQxLDQwLDQxeiIvPiYjeGE7ICAgIDxnIGZpbGw9IiMzNzQ3NEYiPiYjeGE7ICAgICAgICA8cmVjdCB4PSIyNyIgeT0iMzQiIHdpZHRoPSIxMiIgaGVpZ2h0PSIyIi8+JiN4YTsgICAgICAgIDxyZWN0IHg9IjkiIHk9IjM0IiB3aWR0aD0iMTIiIGhlaWdodD0iMiIvPiYjeGE7ICAgICAgICA8cGF0aCBkPSJNMTgsMzVjMCwxLjEtMS4zLDItMywycy0zLTAuOS0zLTJIMTh6Ii8+JiN4YTsgICAgPC9nPiYjeGE7PC9zdmc+;" parent="1" vertex="1">
          <mxGeometry x="20" y="560" width="48" height="48" as="geometry" />
        </mxCell>
        <mxCell id="A5XyS65-MMVEptwIIjuN-56" value="" style="endArrow=none;html=1;rounded=0;entryX=0.25;entryY=1;entryDx=0;entryDy=0;exitX=0.75;exitY=0;exitDx=0;exitDy=0;" parent="1" source="A5XyS65-MMVEptwIIjuN-45" edge="1">
          <mxGeometry width="50" height="50" relative="1" as="geometry">
            <mxPoint x="320" y="540" as="sourcePoint" />
            <mxPoint x="94.00000000000023" y="498" as="targetPoint" />
          </mxGeometry>
        </mxCell>
        <mxCell id="A5XyS65-MMVEptwIIjuN-57" value="" style="shape=image;verticalLabelPosition=bottom;verticalAlign=top;imageAspect=0;aspect=fixed;image=data:image/svg+xml,PHN2ZyB4bWxucz0iaHR0cDovL3d3dy53My5vcmcvMjAwMC9zdmciIHZlcnNpb249IjEiIHZpZXdCb3g9IjAgMCA0OCA0OCIgZW5hYmxlLWJhY2tncm91bmQ9Im5ldyAwIDAgNDggNDgiPiYjeGE7ICAgIDxwYXRoIGZpbGw9IiNGRjk4MDAiIGQ9Ik0yMiwzOGMtNC44LDAtNS03LTUtN3YtNmgxMHY2QzI3LDMxLDI2LjgsMzgsMjIsMzh6Ii8+JiN4YTsgICAgPGcgZmlsbD0iI0ZGQTcyNiI+JiN4YTsgICAgICAgIDxjaXJjbGUgY3g9IjMxIiBjeT0iMTkiIHI9IjIiLz4mI3hhOyAgICAgICAgPGNpcmNsZSBjeD0iMTMiIGN5PSIxOSIgcj0iMiIvPiYjeGE7ICAgIDwvZz4mI3hhOyAgICA8cGF0aCBmaWxsPSIjRkZCNzREIiBkPSJNMzEsMTNjMC03LjYtMTgtNS0xOCwwYzAsMS4xLDAsNS45LDAsN2MwLDUsNCw5LDksOXM5LTQsOS05QzMxLDE4LjksMzEsMTQuMSwzMSwxM3oiLz4mI3hhOyAgICA8cGF0aCBmaWxsPSIjNDI0MjQyIiBkPSJNMjIsNGMtNi4xLDAtMTAsNC45LTEwLDExYzAsMC44LDAsMi4zLDAsMi4zbDIsMS43di01bDEyLTRsNCw0djVsMi0xLjdjMCwwLDAtMS41LDAtMi4zYzAtNC0xLTgtNi05bC0xLTIgSDIyeiIvPiYjeGE7ICAgIDxnIGZpbGw9IiM3ODQ3MTkiPiYjeGE7ICAgICAgICA8Y2lyY2xlIGN4PSIyNiIgY3k9IjE5IiByPSIxIi8+JiN4YTsgICAgICAgIDxjaXJjbGUgY3g9IjE4IiBjeT0iMTkiIHI9IjEiLz4mI3hhOyAgICA8L2c+JiN4YTsgICAgPHBhdGggZmlsbD0iIzAwOTY4OCIgZD0iTTI3LDMxTDI3LDMxYzAsMC0xLjgsMi01LDJzLTUtMi01LTJTNiwzMyw2LDQ0aDMyQzM4LDMzLDI3LDMxLDI3LDMxeiIvPiYjeGE7ICAgIDxnIGZpbGw9IiNGRjk4MDAiPiYjeGE7ICAgICAgICA8cmVjdCB4PSIzNi4xIiB5PSI2LjEiIHRyYW5zZm9ybT0ibWF0cml4KC43MDcgLjcwNyAtLjcwNyAuNzA3IDE5Ljc4NyAtMjUuNzcpIiB3aWR0aD0iOS45IiBoZWlnaHQ9IjkuOSIvPiYjeGE7ICAgICAgICA8cmVjdCB4PSIzNiIgeT0iNiIgd2lkdGg9IjEwIiBoZWlnaHQ9IjEwIi8+JiN4YTsgICAgPC9nPiYjeGE7ICAgIDxjaXJjbGUgZmlsbD0iI0ZGRUIzQiIgY3g9IjQxIiBjeT0iMTEiIHI9IjMiLz4mI3hhOzwvc3ZnPg==;" parent="1" vertex="1">
          <mxGeometry x="100" y="560" width="48" height="48" as="geometry" />
        </mxCell>
        <mxCell id="A5XyS65-MMVEptwIIjuN-58" value="" style="endArrow=none;html=1;rounded=0;entryX=0.75;entryY=1;entryDx=0;entryDy=0;exitX=0.5;exitY=0;exitDx=0;exitDy=0;" parent="1" source="A5XyS65-MMVEptwIIjuN-57" edge="1">
          <mxGeometry width="50" height="50" relative="1" as="geometry">
            <mxPoint x="106" y="560" as="sourcePoint" />
            <mxPoint x="118" y="498" as="targetPoint" />
          </mxGeometry>
        </mxCell>
        <mxCell id="A5XyS65-MMVEptwIIjuN-59" value="" style="shape=image;verticalLabelPosition=bottom;verticalAlign=top;imageAspect=0;aspect=fixed;image=data:image/svg+xml,PHN2ZyB4bWxucz0iaHR0cDovL3d3dy53My5vcmcvMjAwMC9zdmciIHZlcnNpb249IjEiIHZpZXdCb3g9IjAgMCA0OCA0OCIgZW5hYmxlLWJhY2tncm91bmQ9Im5ldyAwIDAgNDggNDgiPiYjeGE7ICAgIDxwYXRoIGZpbGw9IiM1NDZFN0EiIGQ9Ik00NCwzMEg0VjExYzAtMi4yLDEuOC00LDQtNGgzMmMyLjIsMCw0LDEuOCw0LDRWMzB6Ii8+JiN4YTsgICAgPHBhdGggZmlsbD0iIzY0QjVGNiIgZD0iTTQwLDI3SDhjLTAuNiwwLTEtMC40LTEtMVYxMWMwLTAuNiwwLjQtMSwxLTFoMzJjMC42LDAsMSwwLjQsMSwxdjE1QzQxLDI2LjYsNDAuNiwyNyw0MCwyN3oiLz4mI3hhOyAgICA8cGF0aCBmaWxsPSIjNzg5MDlDIiBkPSJNNDAsNDFIOGMtMi4yLDAtNC0xLjgtNC00di03aDQwdjdDNDQsMzkuMiw0Mi4yLDQxLDQwLDQxeiIvPiYjeGE7ICAgIDxnIGZpbGw9IiMzNzQ3NEYiPiYjeGE7ICAgICAgICA8cmVjdCB4PSIyNyIgeT0iMzQiIHdpZHRoPSIxMiIgaGVpZ2h0PSIyIi8+JiN4YTsgICAgICAgIDxyZWN0IHg9IjkiIHk9IjM0IiB3aWR0aD0iMTIiIGhlaWdodD0iMiIvPiYjeGE7ICAgICAgICA8cGF0aCBkPSJNMTgsMzVjMCwxLjEtMS4zLDItMywycy0zLTAuOS0zLTJIMTh6Ii8+JiN4YTsgICAgPC9nPiYjeGE7PC9zdmc+;" parent="1" vertex="1">
          <mxGeometry x="198" y="560" width="48" height="48" as="geometry" />
        </mxCell>
        <mxCell id="A5XyS65-MMVEptwIIjuN-60" value="" style="endArrow=none;html=1;rounded=0;entryX=0.25;entryY=1;entryDx=0;entryDy=0;exitX=0.75;exitY=0;exitDx=0;exitDy=0;" parent="1" source="A5XyS65-MMVEptwIIjuN-59" edge="1">
          <mxGeometry width="50" height="50" relative="1" as="geometry">
            <mxPoint x="442" y="540" as="sourcePoint" />
            <mxPoint x="284" y="498" as="targetPoint" />
          </mxGeometry>
        </mxCell>
        <mxCell id="A5XyS65-MMVEptwIIjuN-61" value="" style="shape=image;verticalLabelPosition=bottom;verticalAlign=top;imageAspect=0;aspect=fixed;image=data:image/svg+xml,PHN2ZyB4bWxucz0iaHR0cDovL3d3dy53My5vcmcvMjAwMC9zdmciIHZlcnNpb249IjEiIHZpZXdCb3g9IjAgMCA0OCA0OCIgZW5hYmxlLWJhY2tncm91bmQ9Im5ldyAwIDAgNDggNDgiPiYjeGE7ICAgIDxwYXRoIGZpbGw9IiNGRjk4MDAiIGQ9Ik0yMiwzOGMtNC44LDAtNS03LTUtN3YtNmgxMHY2QzI3LDMxLDI2LjgsMzgsMjIsMzh6Ii8+JiN4YTsgICAgPGcgZmlsbD0iI0ZGQTcyNiI+JiN4YTsgICAgICAgIDxjaXJjbGUgY3g9IjMxIiBjeT0iMTkiIHI9IjIiLz4mI3hhOyAgICAgICAgPGNpcmNsZSBjeD0iMTMiIGN5PSIxOSIgcj0iMiIvPiYjeGE7ICAgIDwvZz4mI3hhOyAgICA8cGF0aCBmaWxsPSIjRkZCNzREIiBkPSJNMzEsMTNjMC03LjYtMTgtNS0xOCwwYzAsMS4xLDAsNS45LDAsN2MwLDUsNCw5LDksOXM5LTQsOS05QzMxLDE4LjksMzEsMTQuMSwzMSwxM3oiLz4mI3hhOyAgICA8cGF0aCBmaWxsPSIjNDI0MjQyIiBkPSJNMjIsNGMtNi4xLDAtMTAsNC45LTEwLDExYzAsMC44LDAsMi4zLDAsMi4zbDIsMS43di01bDEyLTRsNCw0djVsMi0xLjdjMCwwLDAtMS41LDAtMi4zYzAtNC0xLTgtNi05bC0xLTIgSDIyeiIvPiYjeGE7ICAgIDxnIGZpbGw9IiM3ODQ3MTkiPiYjeGE7ICAgICAgICA8Y2lyY2xlIGN4PSIyNiIgY3k9IjE5IiByPSIxIi8+JiN4YTsgICAgICAgIDxjaXJjbGUgY3g9IjE4IiBjeT0iMTkiIHI9IjEiLz4mI3hhOyAgICA8L2c+JiN4YTsgICAgPHBhdGggZmlsbD0iIzAwOTY4OCIgZD0iTTI3LDMxTDI3LDMxYzAsMC0xLjgsMi01LDJzLTUtMi01LTJTNiwzMyw2LDQ0aDMyQzM4LDMzLDI3LDMxLDI3LDMxeiIvPiYjeGE7ICAgIDxnIGZpbGw9IiNGRjk4MDAiPiYjeGE7ICAgICAgICA8cmVjdCB4PSIzNi4xIiB5PSI2LjEiIHRyYW5zZm9ybT0ibWF0cml4KC43MDcgLjcwNyAtLjcwNyAuNzA3IDE5Ljc4NyAtMjUuNzcpIiB3aWR0aD0iOS45IiBoZWlnaHQ9IjkuOSIvPiYjeGE7ICAgICAgICA8cmVjdCB4PSIzNiIgeT0iNiIgd2lkdGg9IjEwIiBoZWlnaHQ9IjEwIi8+JiN4YTsgICAgPC9nPiYjeGE7ICAgIDxjaXJjbGUgZmlsbD0iI0ZGRUIzQiIgY3g9IjQxIiBjeT0iMTEiIHI9IjMiLz4mI3hhOzwvc3ZnPg==;" parent="1" vertex="1">
          <mxGeometry x="268" y="560" width="48" height="48" as="geometry" />
        </mxCell>
        <mxCell id="A5XyS65-MMVEptwIIjuN-62" value="" style="endArrow=none;html=1;rounded=0;entryX=0.5;entryY=1;entryDx=0;entryDy=0;exitX=0.5;exitY=0;exitDx=0;exitDy=0;" parent="1" source="A5XyS65-MMVEptwIIjuN-61" edge="1">
          <mxGeometry width="50" height="50" relative="1" as="geometry">
            <mxPoint x="228" y="560" as="sourcePoint" />
            <mxPoint x="292.0000000000002" y="498" as="targetPoint" />
          </mxGeometry>
        </mxCell>
        <mxCell id="A5XyS65-MMVEptwIIjuN-63" value="" style="shape=image;verticalLabelPosition=bottom;verticalAlign=top;imageAspect=0;aspect=fixed;image=data:image/svg+xml,PHN2ZyB4bWxucz0iaHR0cDovL3d3dy53My5vcmcvMjAwMC9zdmciIHZlcnNpb249IjEiIHZpZXdCb3g9IjAgMCA0OCA0OCIgZW5hYmxlLWJhY2tncm91bmQ9Im5ldyAwIDAgNDggNDgiPiYjeGE7ICAgIDxwYXRoIGZpbGw9IiM1NDZFN0EiIGQ9Ik00NCwzMEg0VjExYzAtMi4yLDEuOC00LDQtNGgzMmMyLjIsMCw0LDEuOCw0LDRWMzB6Ii8+JiN4YTsgICAgPHBhdGggZmlsbD0iIzY0QjVGNiIgZD0iTTQwLDI3SDhjLTAuNiwwLTEtMC40LTEtMVYxMWMwLTAuNiwwLjQtMSwxLTFoMzJjMC42LDAsMSwwLjQsMSwxdjE1QzQxLDI2LjYsNDAuNiwyNyw0MCwyN3oiLz4mI3hhOyAgICA8cGF0aCBmaWxsPSIjNzg5MDlDIiBkPSJNNDAsNDFIOGMtMi4yLDAtNC0xLjgtNC00di03aDQwdjdDNDQsMzkuMiw0Mi4yLDQxLDQwLDQxeiIvPiYjeGE7ICAgIDxnIGZpbGw9IiMzNzQ3NEYiPiYjeGE7ICAgICAgICA8cmVjdCB4PSIyNyIgeT0iMzQiIHdpZHRoPSIxMiIgaGVpZ2h0PSIyIi8+JiN4YTsgICAgICAgIDxyZWN0IHg9IjkiIHk9IjM0IiB3aWR0aD0iMTIiIGhlaWdodD0iMiIvPiYjeGE7ICAgICAgICA8cGF0aCBkPSJNMTgsMzVjMCwxLjEtMS4zLDItMywycy0zLTAuOS0zLTJIMTh6Ii8+JiN4YTsgICAgPC9nPiYjeGE7PC9zdmc+;" parent="1" vertex="1">
          <mxGeometry x="340" y="560" width="48" height="48" as="geometry" />
        </mxCell>
        <mxCell id="A5XyS65-MMVEptwIIjuN-64" value="" style="endArrow=none;html=1;rounded=0;entryX=0.25;entryY=1;entryDx=0;entryDy=0;exitX=0.75;exitY=0;exitDx=0;exitDy=0;" parent="1" source="A5XyS65-MMVEptwIIjuN-63" edge="1">
          <mxGeometry width="50" height="50" relative="1" as="geometry">
            <mxPoint x="569" y="540" as="sourcePoint" />
            <mxPoint x="392.0000000000002" y="498" as="targetPoint" />
          </mxGeometry>
        </mxCell>
        <mxCell id="A5XyS65-MMVEptwIIjuN-65" value="" style="shape=image;verticalLabelPosition=bottom;verticalAlign=top;imageAspect=0;aspect=fixed;image=data:image/svg+xml,PHN2ZyB4bWxucz0iaHR0cDovL3d3dy53My5vcmcvMjAwMC9zdmciIHZlcnNpb249IjEiIHZpZXdCb3g9IjAgMCA0OCA0OCIgZW5hYmxlLWJhY2tncm91bmQ9Im5ldyAwIDAgNDggNDgiPiYjeGE7ICAgIDxwYXRoIGZpbGw9IiNGRjk4MDAiIGQ9Ik0yMiwzOGMtNC44LDAtNS03LTUtN3YtNmgxMHY2QzI3LDMxLDI2LjgsMzgsMjIsMzh6Ii8+JiN4YTsgICAgPGcgZmlsbD0iI0ZGQTcyNiI+JiN4YTsgICAgICAgIDxjaXJjbGUgY3g9IjMxIiBjeT0iMTkiIHI9IjIiLz4mI3hhOyAgICAgICAgPGNpcmNsZSBjeD0iMTMiIGN5PSIxOSIgcj0iMiIvPiYjeGE7ICAgIDwvZz4mI3hhOyAgICA8cGF0aCBmaWxsPSIjRkZCNzREIiBkPSJNMzEsMTNjMC03LjYtMTgtNS0xOCwwYzAsMS4xLDAsNS45LDAsN2MwLDUsNCw5LDksOXM5LTQsOS05QzMxLDE4LjksMzEsMTQuMSwzMSwxM3oiLz4mI3hhOyAgICA8cGF0aCBmaWxsPSIjNDI0MjQyIiBkPSJNMjIsNGMtNi4xLDAtMTAsNC45LTEwLDExYzAsMC44LDAsMi4zLDAsMi4zbDIsMS43di01bDEyLTRsNCw0djVsMi0xLjdjMCwwLDAtMS41LDAtMi4zYzAtNC0xLTgtNi05bC0xLTIgSDIyeiIvPiYjeGE7ICAgIDxnIGZpbGw9IiM3ODQ3MTkiPiYjeGE7ICAgICAgICA8Y2lyY2xlIGN4PSIyNiIgY3k9IjE5IiByPSIxIi8+JiN4YTsgICAgICAgIDxjaXJjbGUgY3g9IjE4IiBjeT0iMTkiIHI9IjEiLz4mI3hhOyAgICA8L2c+JiN4YTsgICAgPHBhdGggZmlsbD0iIzAwOTY4OCIgZD0iTTI3LDMxTDI3LDMxYzAsMC0xLjgsMi01LDJzLTUtMi01LTJTNiwzMyw2LDQ0aDMyQzM4LDMzLDI3LDMxLDI3LDMxeiIvPiYjeGE7ICAgIDxnIGZpbGw9IiNGRjk4MDAiPiYjeGE7ICAgICAgICA8cmVjdCB4PSIzNi4xIiB5PSI2LjEiIHRyYW5zZm9ybT0ibWF0cml4KC43MDcgLjcwNyAtLjcwNyAuNzA3IDE5Ljc4NyAtMjUuNzcpIiB3aWR0aD0iOS45IiBoZWlnaHQ9IjkuOSIvPiYjeGE7ICAgICAgICA8cmVjdCB4PSIzNiIgeT0iNiIgd2lkdGg9IjEwIiBoZWlnaHQ9IjEwIi8+JiN4YTsgICAgPC9nPiYjeGE7ICAgIDxjaXJjbGUgZmlsbD0iI0ZGRUIzQiIgY3g9IjQxIiBjeT0iMTEiIHI9IjMiLz4mI3hhOzwvc3ZnPg==;" parent="1" vertex="1">
          <mxGeometry x="407" y="560" width="48" height="48" as="geometry" />
        </mxCell>
        <mxCell id="A5XyS65-MMVEptwIIjuN-66" value="" style="endArrow=none;html=1;rounded=0;entryX=0.5;entryY=1;entryDx=0;entryDy=0;exitX=0.479;exitY=0;exitDx=0;exitDy=0;exitPerimeter=0;" parent="1" source="A5XyS65-MMVEptwIIjuN-65" edge="1">
          <mxGeometry width="50" height="50" relative="1" as="geometry">
            <mxPoint x="355" y="560" as="sourcePoint" />
            <mxPoint x="419" y="498" as="targetPoint" />
          </mxGeometry>
        </mxCell>
        <mxCell id="A5XyS65-MMVEptwIIjuN-67" style="edgeStyle=orthogonalEdgeStyle;rounded=0;orthogonalLoop=1;jettySize=auto;html=1;exitX=0.5;exitY=1;exitDx=0;exitDy=0;" parent="1" source="A5XyS65-MMVEptwIIjuN-41" target="A5XyS65-MMVEptwIIjuN-41" edge="1">
          <mxGeometry relative="1" as="geometry" />
        </mxCell>
        <mxCell id="A5XyS65-MMVEptwIIjuN-68" value="" style="shape=image;verticalLabelPosition=bottom;verticalAlign=top;imageAspect=0;aspect=fixed;image=data:image/svg+xml,PHN2ZyB4bWxucz0iaHR0cDovL3d3dy53My5vcmcvMjAwMC9zdmciIHZlcnNpb249IjEiIHZpZXdCb3g9IjAgMCA0OCA0OCIgZW5hYmxlLWJhY2tncm91bmQ9Im5ldyAwIDAgNDggNDgiPiYjeGE7ICAgIDxwYXRoIGZpbGw9IiM1NDZFN0EiIGQ9Ik00NCwzMEg0VjExYzAtMi4yLDEuOC00LDQtNGgzMmMyLjIsMCw0LDEuOCw0LDRWMzB6Ii8+JiN4YTsgICAgPHBhdGggZmlsbD0iIzY0QjVGNiIgZD0iTTQwLDI3SDhjLTAuNiwwLTEtMC40LTEtMVYxMWMwLTAuNiwwLjQtMSwxLTFoMzJjMC42LDAsMSwwLjQsMSwxdjE1QzQxLDI2LjYsNDAuNiwyNyw0MCwyN3oiLz4mI3hhOyAgICA8cGF0aCBmaWxsPSIjNzg5MDlDIiBkPSJNNDAsNDFIOGMtMi4yLDAtNC0xLjgtNC00di03aDQwdjdDNDQsMzkuMiw0Mi4yLDQxLDQwLDQxeiIvPiYjeGE7ICAgIDxnIGZpbGw9IiMzNzQ3NEYiPiYjeGE7ICAgICAgICA8cmVjdCB4PSIyNyIgeT0iMzQiIHdpZHRoPSIxMiIgaGVpZ2h0PSIyIi8+JiN4YTsgICAgICAgIDxyZWN0IHg9IjkiIHk9IjM0IiB3aWR0aD0iMTIiIGhlaWdodD0iMiIvPiYjeGE7ICAgICAgICA8cGF0aCBkPSJNMTgsMzVjMCwxLjEtMS4zLDItMywycy0zLTAuOS0zLTJIMTh6Ii8+JiN4YTsgICAgPC9nPiYjeGE7PC9zdmc+;" parent="1" vertex="1">
          <mxGeometry x="464.5" y="560" width="48" height="48" as="geometry" />
        </mxCell>
        <mxCell id="A5XyS65-MMVEptwIIjuN-69" value="" style="endArrow=none;html=1;rounded=0;entryX=0.25;entryY=1;entryDx=0;entryDy=0;exitX=0.75;exitY=0;exitDx=0;exitDy=0;" parent="1" source="A5XyS65-MMVEptwIIjuN-68" edge="1">
          <mxGeometry width="50" height="50" relative="1" as="geometry">
            <mxPoint x="693.5" y="540" as="sourcePoint" />
            <mxPoint x="516.5" y="498" as="targetPoint" />
          </mxGeometry>
        </mxCell>
        <mxCell id="A5XyS65-MMVEptwIIjuN-70" value="" style="shape=image;verticalLabelPosition=bottom;verticalAlign=top;imageAspect=0;aspect=fixed;image=data:image/svg+xml,PHN2ZyB4bWxucz0iaHR0cDovL3d3dy53My5vcmcvMjAwMC9zdmciIHZlcnNpb249IjEiIHZpZXdCb3g9IjAgMCA0OCA0OCIgZW5hYmxlLWJhY2tncm91bmQ9Im5ldyAwIDAgNDggNDgiPiYjeGE7ICAgIDxwYXRoIGZpbGw9IiNGRjk4MDAiIGQ9Ik0yMiwzOGMtNC44LDAtNS03LTUtN3YtNmgxMHY2QzI3LDMxLDI2LjgsMzgsMjIsMzh6Ii8+JiN4YTsgICAgPGcgZmlsbD0iI0ZGQTcyNiI+JiN4YTsgICAgICAgIDxjaXJjbGUgY3g9IjMxIiBjeT0iMTkiIHI9IjIiLz4mI3hhOyAgICAgICAgPGNpcmNsZSBjeD0iMTMiIGN5PSIxOSIgcj0iMiIvPiYjeGE7ICAgIDwvZz4mI3hhOyAgICA8cGF0aCBmaWxsPSIjRkZCNzREIiBkPSJNMzEsMTNjMC03LjYtMTgtNS0xOCwwYzAsMS4xLDAsNS45LDAsN2MwLDUsNCw5LDksOXM5LTQsOS05QzMxLDE4LjksMzEsMTQuMSwzMSwxM3oiLz4mI3hhOyAgICA8cGF0aCBmaWxsPSIjNDI0MjQyIiBkPSJNMjIsNGMtNi4xLDAtMTAsNC45LTEwLDExYzAsMC44LDAsMi4zLDAsMi4zbDIsMS43di01bDEyLTRsNCw0djVsMi0xLjdjMCwwLDAtMS41LDAtMi4zYzAtNC0xLTgtNi05bC0xLTIgSDIyeiIvPiYjeGE7ICAgIDxnIGZpbGw9IiM3ODQ3MTkiPiYjeGE7ICAgICAgICA8Y2lyY2xlIGN4PSIyNiIgY3k9IjE5IiByPSIxIi8+JiN4YTsgICAgICAgIDxjaXJjbGUgY3g9IjE4IiBjeT0iMTkiIHI9IjEiLz4mI3hhOyAgICA8L2c+JiN4YTsgICAgPHBhdGggZmlsbD0iIzAwOTY4OCIgZD0iTTI3LDMxTDI3LDMxYzAsMC0xLjgsMi01LDJzLTUtMi01LTJTNiwzMyw2LDQ0aDMyQzM4LDMzLDI3LDMxLDI3LDMxeiIvPiYjeGE7ICAgIDxnIGZpbGw9IiNGRjk4MDAiPiYjeGE7ICAgICAgICA8cmVjdCB4PSIzNi4xIiB5PSI2LjEiIHRyYW5zZm9ybT0ibWF0cml4KC43MDcgLjcwNyAtLjcwNyAuNzA3IDE5Ljc4NyAtMjUuNzcpIiB3aWR0aD0iOS45IiBoZWlnaHQ9IjkuOSIvPiYjeGE7ICAgICAgICA8cmVjdCB4PSIzNiIgeT0iNiIgd2lkdGg9IjEwIiBoZWlnaHQ9IjEwIi8+JiN4YTsgICAgPC9nPiYjeGE7ICAgIDxjaXJjbGUgZmlsbD0iI0ZGRUIzQiIgY3g9IjQxIiBjeT0iMTEiIHI9IjMiLz4mI3hhOzwvc3ZnPg==;" parent="1" vertex="1">
          <mxGeometry x="531.5" y="560" width="48" height="48" as="geometry" />
        </mxCell>
        <mxCell id="A5XyS65-MMVEptwIIjuN-71" value="" style="endArrow=none;html=1;rounded=0;entryX=0.5;entryY=1;entryDx=0;entryDy=0;exitX=0.479;exitY=0;exitDx=0;exitDy=0;exitPerimeter=0;" parent="1" source="A5XyS65-MMVEptwIIjuN-70" edge="1">
          <mxGeometry width="50" height="50" relative="1" as="geometry">
            <mxPoint x="479.5" y="560" as="sourcePoint" />
            <mxPoint x="543.5" y="498" as="targetPoint" />
          </mxGeometry>
        </mxCell>
        <mxCell id="A5XyS65-MMVEptwIIjuN-72" value="" style="shape=image;verticalLabelPosition=bottom;verticalAlign=top;imageAspect=0;aspect=fixed;image=data:image/svg+xml,PHN2ZyB4bWxucz0iaHR0cDovL3d3dy53My5vcmcvMjAwMC9zdmciIHZlcnNpb249IjEiIHZpZXdCb3g9IjAgMCA0OCA0OCIgZW5hYmxlLWJhY2tncm91bmQ9Im5ldyAwIDAgNDggNDgiPiYjeGE7ICAgIDxwYXRoIGZpbGw9IiM1NDZFN0EiIGQ9Ik00NCwzMEg0VjExYzAtMi4yLDEuOC00LDQtNGgzMmMyLjIsMCw0LDEuOCw0LDRWMzB6Ii8+JiN4YTsgICAgPHBhdGggZmlsbD0iIzY0QjVGNiIgZD0iTTQwLDI3SDhjLTAuNiwwLTEtMC40LTEtMVYxMWMwLTAuNiwwLjQtMSwxLTFoMzJjMC42LDAsMSwwLjQsMSwxdjE1QzQxLDI2LjYsNDAuNiwyNyw0MCwyN3oiLz4mI3hhOyAgICA8cGF0aCBmaWxsPSIjNzg5MDlDIiBkPSJNNDAsNDFIOGMtMi4yLDAtNC0xLjgtNC00di03aDQwdjdDNDQsMzkuMiw0Mi4yLDQxLDQwLDQxeiIvPiYjeGE7ICAgIDxnIGZpbGw9IiMzNzQ3NEYiPiYjeGE7ICAgICAgICA8cmVjdCB4PSIyNyIgeT0iMzQiIHdpZHRoPSIxMiIgaGVpZ2h0PSIyIi8+JiN4YTsgICAgICAgIDxyZWN0IHg9IjkiIHk9IjM0IiB3aWR0aD0iMTIiIGhlaWdodD0iMiIvPiYjeGE7ICAgICAgICA8cGF0aCBkPSJNMTgsMzVjMCwxLjEtMS4zLDItMywycy0zLTAuOS0zLTJIMTh6Ii8+JiN4YTsgICAgPC9nPiYjeGE7PC9zdmc+;" parent="1" vertex="1">
          <mxGeometry x="618" y="560" width="48" height="48" as="geometry" />
        </mxCell>
        <mxCell id="A5XyS65-MMVEptwIIjuN-73" value="" style="endArrow=none;html=1;rounded=0;entryX=0.25;entryY=1;entryDx=0;entryDy=0;exitX=0.75;exitY=0;exitDx=0;exitDy=0;" parent="1" source="A5XyS65-MMVEptwIIjuN-72" edge="1">
          <mxGeometry width="50" height="50" relative="1" as="geometry">
            <mxPoint x="847" y="540" as="sourcePoint" />
            <mxPoint x="670" y="498" as="targetPoint" />
          </mxGeometry>
        </mxCell>
        <mxCell id="A5XyS65-MMVEptwIIjuN-74" value="" style="shape=image;verticalLabelPosition=bottom;verticalAlign=top;imageAspect=0;aspect=fixed;image=data:image/svg+xml,PHN2ZyB4bWxucz0iaHR0cDovL3d3dy53My5vcmcvMjAwMC9zdmciIHZlcnNpb249IjEiIHZpZXdCb3g9IjAgMCA0OCA0OCIgZW5hYmxlLWJhY2tncm91bmQ9Im5ldyAwIDAgNDggNDgiPiYjeGE7ICAgIDxwYXRoIGZpbGw9IiNGRjk4MDAiIGQ9Ik0yMiwzOGMtNC44LDAtNS03LTUtN3YtNmgxMHY2QzI3LDMxLDI2LjgsMzgsMjIsMzh6Ii8+JiN4YTsgICAgPGcgZmlsbD0iI0ZGQTcyNiI+JiN4YTsgICAgICAgIDxjaXJjbGUgY3g9IjMxIiBjeT0iMTkiIHI9IjIiLz4mI3hhOyAgICAgICAgPGNpcmNsZSBjeD0iMTMiIGN5PSIxOSIgcj0iMiIvPiYjeGE7ICAgIDwvZz4mI3hhOyAgICA8cGF0aCBmaWxsPSIjRkZCNzREIiBkPSJNMzEsMTNjMC03LjYtMTgtNS0xOCwwYzAsMS4xLDAsNS45LDAsN2MwLDUsNCw5LDksOXM5LTQsOS05QzMxLDE4LjksMzEsMTQuMSwzMSwxM3oiLz4mI3hhOyAgICA8cGF0aCBmaWxsPSIjNDI0MjQyIiBkPSJNMjIsNGMtNi4xLDAtMTAsNC45LTEwLDExYzAsMC44LDAsMi4zLDAsMi4zbDIsMS43di01bDEyLTRsNCw0djVsMi0xLjdjMCwwLDAtMS41LDAtMi4zYzAtNC0xLTgtNi05bC0xLTIgSDIyeiIvPiYjeGE7ICAgIDxnIGZpbGw9IiM3ODQ3MTkiPiYjeGE7ICAgICAgICA8Y2lyY2xlIGN4PSIyNiIgY3k9IjE5IiByPSIxIi8+JiN4YTsgICAgICAgIDxjaXJjbGUgY3g9IjE4IiBjeT0iMTkiIHI9IjEiLz4mI3hhOyAgICA8L2c+JiN4YTsgICAgPHBhdGggZmlsbD0iIzAwOTY4OCIgZD0iTTI3LDMxTDI3LDMxYzAsMC0xLjgsMi01LDJzLTUtMi01LTJTNiwzMyw2LDQ0aDMyQzM4LDMzLDI3LDMxLDI3LDMxeiIvPiYjeGE7ICAgIDxnIGZpbGw9IiNGRjk4MDAiPiYjeGE7ICAgICAgICA8cmVjdCB4PSIzNi4xIiB5PSI2LjEiIHRyYW5zZm9ybT0ibWF0cml4KC43MDcgLjcwNyAtLjcwNyAuNzA3IDE5Ljc4NyAtMjUuNzcpIiB3aWR0aD0iOS45IiBoZWlnaHQ9IjkuOSIvPiYjeGE7ICAgICAgICA8cmVjdCB4PSIzNiIgeT0iNiIgd2lkdGg9IjEwIiBoZWlnaHQ9IjEwIi8+JiN4YTsgICAgPC9nPiYjeGE7ICAgIDxjaXJjbGUgZmlsbD0iI0ZGRUIzQiIgY3g9IjQxIiBjeT0iMTEiIHI9IjMiLz4mI3hhOzwvc3ZnPg==;" parent="1" vertex="1">
          <mxGeometry x="685" y="560" width="48" height="48" as="geometry" />
        </mxCell>
        <mxCell id="A5XyS65-MMVEptwIIjuN-75" value="" style="endArrow=none;html=1;rounded=0;entryX=0.5;entryY=1;entryDx=0;entryDy=0;exitX=0.479;exitY=0;exitDx=0;exitDy=0;exitPerimeter=0;" parent="1" source="A5XyS65-MMVEptwIIjuN-74" edge="1">
          <mxGeometry width="50" height="50" relative="1" as="geometry">
            <mxPoint x="633" y="560" as="sourcePoint" />
            <mxPoint x="697" y="498" as="targetPoint" />
          </mxGeometry>
        </mxCell>
        <mxCell id="A5XyS65-MMVEptwIIjuN-76" value="" style="shape=image;verticalLabelPosition=bottom;verticalAlign=top;imageAspect=0;aspect=fixed;image=data:image/svg+xml,PHN2ZyB4bWxucz0iaHR0cDovL3d3dy53My5vcmcvMjAwMC9zdmciIHZlcnNpb249IjEiIHZpZXdCb3g9IjAgMCA0OCA0OCIgZW5hYmxlLWJhY2tncm91bmQ9Im5ldyAwIDAgNDggNDgiPiYjeGE7ICAgIDxwYXRoIGZpbGw9IiM1NDZFN0EiIGQ9Ik00NCwzMEg0VjExYzAtMi4yLDEuOC00LDQtNGgzMmMyLjIsMCw0LDEuOCw0LDRWMzB6Ii8+JiN4YTsgICAgPHBhdGggZmlsbD0iIzY0QjVGNiIgZD0iTTQwLDI3SDhjLTAuNiwwLTEtMC40LTEtMVYxMWMwLTAuNiwwLjQtMSwxLTFoMzJjMC42LDAsMSwwLjQsMSwxdjE1QzQxLDI2LjYsNDAuNiwyNyw0MCwyN3oiLz4mI3hhOyAgICA8cGF0aCBmaWxsPSIjNzg5MDlDIiBkPSJNNDAsNDFIOGMtMi4yLDAtNC0xLjgtNC00di03aDQwdjdDNDQsMzkuMiw0Mi4yLDQxLDQwLDQxeiIvPiYjeGE7ICAgIDxnIGZpbGw9IiMzNzQ3NEYiPiYjeGE7ICAgICAgICA8cmVjdCB4PSIyNyIgeT0iMzQiIHdpZHRoPSIxMiIgaGVpZ2h0PSIyIi8+JiN4YTsgICAgICAgIDxyZWN0IHg9IjkiIHk9IjM0IiB3aWR0aD0iMTIiIGhlaWdodD0iMiIvPiYjeGE7ICAgICAgICA8cGF0aCBkPSJNMTgsMzVjMCwxLjEtMS4zLDItMywycy0zLTAuOS0zLTJIMTh6Ii8+JiN4YTsgICAgPC9nPiYjeGE7PC9zdmc+;" parent="1" vertex="1">
          <mxGeometry x="740" y="560" width="48" height="48" as="geometry" />
        </mxCell>
        <mxCell id="A5XyS65-MMVEptwIIjuN-77" value="" style="endArrow=none;html=1;rounded=0;entryX=0.25;entryY=1;entryDx=0;entryDy=0;exitX=0.75;exitY=0;exitDx=0;exitDy=0;" parent="1" source="A5XyS65-MMVEptwIIjuN-76" edge="1">
          <mxGeometry width="50" height="50" relative="1" as="geometry">
            <mxPoint x="969" y="540" as="sourcePoint" />
            <mxPoint x="792" y="498" as="targetPoint" />
          </mxGeometry>
        </mxCell>
        <mxCell id="A5XyS65-MMVEptwIIjuN-78" value="" style="shape=image;verticalLabelPosition=bottom;verticalAlign=top;imageAspect=0;aspect=fixed;image=data:image/svg+xml,PHN2ZyB4bWxucz0iaHR0cDovL3d3dy53My5vcmcvMjAwMC9zdmciIHZlcnNpb249IjEiIHZpZXdCb3g9IjAgMCA0OCA0OCIgZW5hYmxlLWJhY2tncm91bmQ9Im5ldyAwIDAgNDggNDgiPiYjeGE7ICAgIDxwYXRoIGZpbGw9IiNGRjk4MDAiIGQ9Ik0yMiwzOGMtNC44LDAtNS03LTUtN3YtNmgxMHY2QzI3LDMxLDI2LjgsMzgsMjIsMzh6Ii8+JiN4YTsgICAgPGcgZmlsbD0iI0ZGQTcyNiI+JiN4YTsgICAgICAgIDxjaXJjbGUgY3g9IjMxIiBjeT0iMTkiIHI9IjIiLz4mI3hhOyAgICAgICAgPGNpcmNsZSBjeD0iMTMiIGN5PSIxOSIgcj0iMiIvPiYjeGE7ICAgIDwvZz4mI3hhOyAgICA8cGF0aCBmaWxsPSIjRkZCNzREIiBkPSJNMzEsMTNjMC03LjYtMTgtNS0xOCwwYzAsMS4xLDAsNS45LDAsN2MwLDUsNCw5LDksOXM5LTQsOS05QzMxLDE4LjksMzEsMTQuMSwzMSwxM3oiLz4mI3hhOyAgICA8cGF0aCBmaWxsPSIjNDI0MjQyIiBkPSJNMjIsNGMtNi4xLDAtMTAsNC45LTEwLDExYzAsMC44LDAsMi4zLDAsMi4zbDIsMS43di01bDEyLTRsNCw0djVsMi0xLjdjMCwwLDAtMS41LDAtMi4zYzAtNC0xLTgtNi05bC0xLTIgSDIyeiIvPiYjeGE7ICAgIDxnIGZpbGw9IiM3ODQ3MTkiPiYjeGE7ICAgICAgICA8Y2lyY2xlIGN4PSIyNiIgY3k9IjE5IiByPSIxIi8+JiN4YTsgICAgICAgIDxjaXJjbGUgY3g9IjE4IiBjeT0iMTkiIHI9IjEiLz4mI3hhOyAgICA8L2c+JiN4YTsgICAgPHBhdGggZmlsbD0iIzAwOTY4OCIgZD0iTTI3LDMxTDI3LDMxYzAsMC0xLjgsMi01LDJzLTUtMi01LTJTNiwzMyw2LDQ0aDMyQzM4LDMzLDI3LDMxLDI3LDMxeiIvPiYjeGE7ICAgIDxnIGZpbGw9IiNGRjk4MDAiPiYjeGE7ICAgICAgICA8cmVjdCB4PSIzNi4xIiB5PSI2LjEiIHRyYW5zZm9ybT0ibWF0cml4KC43MDcgLjcwNyAtLjcwNyAuNzA3IDE5Ljc4NyAtMjUuNzcpIiB3aWR0aD0iOS45IiBoZWlnaHQ9IjkuOSIvPiYjeGE7ICAgICAgICA8cmVjdCB4PSIzNiIgeT0iNiIgd2lkdGg9IjEwIiBoZWlnaHQ9IjEwIi8+JiN4YTsgICAgPC9nPiYjeGE7ICAgIDxjaXJjbGUgZmlsbD0iI0ZGRUIzQiIgY3g9IjQxIiBjeT0iMTEiIHI9IjMiLz4mI3hhOzwvc3ZnPg==;" parent="1" vertex="1">
          <mxGeometry x="807" y="560" width="48" height="48" as="geometry" />
        </mxCell>
        <mxCell id="A5XyS65-MMVEptwIIjuN-79" value="" style="endArrow=none;html=1;rounded=0;entryX=0.5;entryY=1;entryDx=0;entryDy=0;exitX=0.479;exitY=0;exitDx=0;exitDy=0;exitPerimeter=0;" parent="1" source="A5XyS65-MMVEptwIIjuN-78" edge="1">
          <mxGeometry width="50" height="50" relative="1" as="geometry">
            <mxPoint x="755" y="560" as="sourcePoint" />
            <mxPoint x="819" y="498" as="targetPoint" />
          </mxGeometry>
        </mxCell>
        <mxCell id="A5XyS65-MMVEptwIIjuN-80" value="" style="shape=image;verticalLabelPosition=bottom;verticalAlign=top;imageAspect=0;aspect=fixed;image=data:image/svg+xml,PHN2ZyB4bWxucz0iaHR0cDovL3d3dy53My5vcmcvMjAwMC9zdmciIHZlcnNpb249IjEiIHZpZXdCb3g9IjAgMCA0OCA0OCIgZW5hYmxlLWJhY2tncm91bmQ9Im5ldyAwIDAgNDggNDgiPiYjeGE7ICAgIDxwYXRoIGZpbGw9IiM1NDZFN0EiIGQ9Ik00NCwzMEg0VjExYzAtMi4yLDEuOC00LDQtNGgzMmMyLjIsMCw0LDEuOCw0LDRWMzB6Ii8+JiN4YTsgICAgPHBhdGggZmlsbD0iIzY0QjVGNiIgZD0iTTQwLDI3SDhjLTAuNiwwLTEtMC40LTEtMVYxMWMwLTAuNiwwLjQtMSwxLTFoMzJjMC42LDAsMSwwLjQsMSwxdjE1QzQxLDI2LjYsNDAuNiwyNyw0MCwyN3oiLz4mI3hhOyAgICA8cGF0aCBmaWxsPSIjNzg5MDlDIiBkPSJNNDAsNDFIOGMtMi4yLDAtNC0xLjgtNC00di03aDQwdjdDNDQsMzkuMiw0Mi4yLDQxLDQwLDQxeiIvPiYjeGE7ICAgIDxnIGZpbGw9IiMzNzQ3NEYiPiYjeGE7ICAgICAgICA8cmVjdCB4PSIyNyIgeT0iMzQiIHdpZHRoPSIxMiIgaGVpZ2h0PSIyIi8+JiN4YTsgICAgICAgIDxyZWN0IHg9IjkiIHk9IjM0IiB3aWR0aD0iMTIiIGhlaWdodD0iMiIvPiYjeGE7ICAgICAgICA8cGF0aCBkPSJNMTgsMzVjMCwxLjEtMS4zLDItMywycy0zLTAuOS0zLTJIMTh6Ii8+JiN4YTsgICAgPC9nPiYjeGE7PC9zdmc+;" parent="1" vertex="1">
          <mxGeometry x="880" y="560" width="48" height="48" as="geometry" />
        </mxCell>
        <mxCell id="A5XyS65-MMVEptwIIjuN-81" value="" style="endArrow=none;html=1;rounded=0;entryX=0.25;entryY=1;entryDx=0;entryDy=0;exitX=0.75;exitY=0;exitDx=0;exitDy=0;" parent="1" source="A5XyS65-MMVEptwIIjuN-80" edge="1">
          <mxGeometry width="50" height="50" relative="1" as="geometry">
            <mxPoint x="1109" y="540" as="sourcePoint" />
            <mxPoint x="932" y="498" as="targetPoint" />
          </mxGeometry>
        </mxCell>
        <mxCell id="A5XyS65-MMVEptwIIjuN-82" value="" style="shape=image;verticalLabelPosition=bottom;verticalAlign=top;imageAspect=0;aspect=fixed;image=data:image/svg+xml,PHN2ZyB4bWxucz0iaHR0cDovL3d3dy53My5vcmcvMjAwMC9zdmciIHZlcnNpb249IjEiIHZpZXdCb3g9IjAgMCA0OCA0OCIgZW5hYmxlLWJhY2tncm91bmQ9Im5ldyAwIDAgNDggNDgiPiYjeGE7ICAgIDxwYXRoIGZpbGw9IiNGRjk4MDAiIGQ9Ik0yMiwzOGMtNC44LDAtNS03LTUtN3YtNmgxMHY2QzI3LDMxLDI2LjgsMzgsMjIsMzh6Ii8+JiN4YTsgICAgPGcgZmlsbD0iI0ZGQTcyNiI+JiN4YTsgICAgICAgIDxjaXJjbGUgY3g9IjMxIiBjeT0iMTkiIHI9IjIiLz4mI3hhOyAgICAgICAgPGNpcmNsZSBjeD0iMTMiIGN5PSIxOSIgcj0iMiIvPiYjeGE7ICAgIDwvZz4mI3hhOyAgICA8cGF0aCBmaWxsPSIjRkZCNzREIiBkPSJNMzEsMTNjMC03LjYtMTgtNS0xOCwwYzAsMS4xLDAsNS45LDAsN2MwLDUsNCw5LDksOXM5LTQsOS05QzMxLDE4LjksMzEsMTQuMSwzMSwxM3oiLz4mI3hhOyAgICA8cGF0aCBmaWxsPSIjNDI0MjQyIiBkPSJNMjIsNGMtNi4xLDAtMTAsNC45LTEwLDExYzAsMC44LDAsMi4zLDAsMi4zbDIsMS43di01bDEyLTRsNCw0djVsMi0xLjdjMCwwLDAtMS41LDAtMi4zYzAtNC0xLTgtNi05bC0xLTIgSDIyeiIvPiYjeGE7ICAgIDxnIGZpbGw9IiM3ODQ3MTkiPiYjeGE7ICAgICAgICA8Y2lyY2xlIGN4PSIyNiIgY3k9IjE5IiByPSIxIi8+JiN4YTsgICAgICAgIDxjaXJjbGUgY3g9IjE4IiBjeT0iMTkiIHI9IjEiLz4mI3hhOyAgICA8L2c+JiN4YTsgICAgPHBhdGggZmlsbD0iIzAwOTY4OCIgZD0iTTI3LDMxTDI3LDMxYzAsMC0xLjgsMi01LDJzLTUtMi01LTJTNiwzMyw2LDQ0aDMyQzM4LDMzLDI3LDMxLDI3LDMxeiIvPiYjeGE7ICAgIDxnIGZpbGw9IiNGRjk4MDAiPiYjeGE7ICAgICAgICA8cmVjdCB4PSIzNi4xIiB5PSI2LjEiIHRyYW5zZm9ybT0ibWF0cml4KC43MDcgLjcwNyAtLjcwNyAuNzA3IDE5Ljc4NyAtMjUuNzcpIiB3aWR0aD0iOS45IiBoZWlnaHQ9IjkuOSIvPiYjeGE7ICAgICAgICA8cmVjdCB4PSIzNiIgeT0iNiIgd2lkdGg9IjEwIiBoZWlnaHQ9IjEwIi8+JiN4YTsgICAgPC9nPiYjeGE7ICAgIDxjaXJjbGUgZmlsbD0iI0ZGRUIzQiIgY3g9IjQxIiBjeT0iMTEiIHI9IjMiLz4mI3hhOzwvc3ZnPg==;" parent="1" vertex="1">
          <mxGeometry x="947" y="560" width="48" height="48" as="geometry" />
        </mxCell>
        <mxCell id="A5XyS65-MMVEptwIIjuN-83" value="" style="endArrow=none;html=1;rounded=0;entryX=0.5;entryY=1;entryDx=0;entryDy=0;exitX=0.479;exitY=0;exitDx=0;exitDy=0;exitPerimeter=0;" parent="1" source="A5XyS65-MMVEptwIIjuN-82" edge="1">
          <mxGeometry width="50" height="50" relative="1" as="geometry">
            <mxPoint x="895" y="560" as="sourcePoint" />
            <mxPoint x="959" y="498" as="targetPoint" />
          </mxGeometry>
        </mxCell>
        <mxCell id="A5XyS65-MMVEptwIIjuN-84" value="" style="shape=image;verticalLabelPosition=bottom;verticalAlign=top;imageAspect=0;aspect=fixed;image=data:image/svg+xml,PHN2ZyB4bWxucz0iaHR0cDovL3d3dy53My5vcmcvMjAwMC9zdmciIHZlcnNpb249IjEiIHZpZXdCb3g9IjAgMCA0OCA0OCIgZW5hYmxlLWJhY2tncm91bmQ9Im5ldyAwIDAgNDggNDgiPiYjeGE7ICAgIDxwYXRoIGZpbGw9IiM1NDZFN0EiIGQ9Ik00NCwzMEg0VjExYzAtMi4yLDEuOC00LDQtNGgzMmMyLjIsMCw0LDEuOCw0LDRWMzB6Ii8+JiN4YTsgICAgPHBhdGggZmlsbD0iIzY0QjVGNiIgZD0iTTQwLDI3SDhjLTAuNiwwLTEtMC40LTEtMVYxMWMwLTAuNiwwLjQtMSwxLTFoMzJjMC42LDAsMSwwLjQsMSwxdjE1QzQxLDI2LjYsNDAuNiwyNyw0MCwyN3oiLz4mI3hhOyAgICA8cGF0aCBmaWxsPSIjNzg5MDlDIiBkPSJNNDAsNDFIOGMtMi4yLDAtNC0xLjgtNC00di03aDQwdjdDNDQsMzkuMiw0Mi4yLDQxLDQwLDQxeiIvPiYjeGE7ICAgIDxnIGZpbGw9IiMzNzQ3NEYiPiYjeGE7ICAgICAgICA8cmVjdCB4PSIyNyIgeT0iMzQiIHdpZHRoPSIxMiIgaGVpZ2h0PSIyIi8+JiN4YTsgICAgICAgIDxyZWN0IHg9IjkiIHk9IjM0IiB3aWR0aD0iMTIiIGhlaWdodD0iMiIvPiYjeGE7ICAgICAgICA8cGF0aCBkPSJNMTgsMzVjMCwxLjEtMS4zLDItMywycy0zLTAuOS0zLTJIMTh6Ii8+JiN4YTsgICAgPC9nPiYjeGE7PC9zdmc+;" parent="1" vertex="1">
          <mxGeometry x="1020" y="560" width="48" height="48" as="geometry" />
        </mxCell>
        <mxCell id="A5XyS65-MMVEptwIIjuN-85" value="" style="endArrow=none;html=1;rounded=0;entryX=0.25;entryY=1;entryDx=0;entryDy=0;exitX=0.75;exitY=0;exitDx=0;exitDy=0;" parent="1" source="A5XyS65-MMVEptwIIjuN-84" edge="1">
          <mxGeometry width="50" height="50" relative="1" as="geometry">
            <mxPoint x="1249" y="540" as="sourcePoint" />
            <mxPoint x="1072" y="498" as="targetPoint" />
          </mxGeometry>
        </mxCell>
        <mxCell id="A5XyS65-MMVEptwIIjuN-86" value="" style="shape=image;verticalLabelPosition=bottom;verticalAlign=top;imageAspect=0;aspect=fixed;image=data:image/svg+xml,PHN2ZyB4bWxucz0iaHR0cDovL3d3dy53My5vcmcvMjAwMC9zdmciIHZlcnNpb249IjEiIHZpZXdCb3g9IjAgMCA0OCA0OCIgZW5hYmxlLWJhY2tncm91bmQ9Im5ldyAwIDAgNDggNDgiPiYjeGE7ICAgIDxwYXRoIGZpbGw9IiNGRjk4MDAiIGQ9Ik0yMiwzOGMtNC44LDAtNS03LTUtN3YtNmgxMHY2QzI3LDMxLDI2LjgsMzgsMjIsMzh6Ii8+JiN4YTsgICAgPGcgZmlsbD0iI0ZGQTcyNiI+JiN4YTsgICAgICAgIDxjaXJjbGUgY3g9IjMxIiBjeT0iMTkiIHI9IjIiLz4mI3hhOyAgICAgICAgPGNpcmNsZSBjeD0iMTMiIGN5PSIxOSIgcj0iMiIvPiYjeGE7ICAgIDwvZz4mI3hhOyAgICA8cGF0aCBmaWxsPSIjRkZCNzREIiBkPSJNMzEsMTNjMC03LjYtMTgtNS0xOCwwYzAsMS4xLDAsNS45LDAsN2MwLDUsNCw5LDksOXM5LTQsOS05QzMxLDE4LjksMzEsMTQuMSwzMSwxM3oiLz4mI3hhOyAgICA8cGF0aCBmaWxsPSIjNDI0MjQyIiBkPSJNMjIsNGMtNi4xLDAtMTAsNC45LTEwLDExYzAsMC44LDAsMi4zLDAsMi4zbDIsMS43di01bDEyLTRsNCw0djVsMi0xLjdjMCwwLDAtMS41LDAtMi4zYzAtNC0xLTgtNi05bC0xLTIgSDIyeiIvPiYjeGE7ICAgIDxnIGZpbGw9IiM3ODQ3MTkiPiYjeGE7ICAgICAgICA8Y2lyY2xlIGN4PSIyNiIgY3k9IjE5IiByPSIxIi8+JiN4YTsgICAgICAgIDxjaXJjbGUgY3g9IjE4IiBjeT0iMTkiIHI9IjEiLz4mI3hhOyAgICA8L2c+JiN4YTsgICAgPHBhdGggZmlsbD0iIzAwOTY4OCIgZD0iTTI3LDMxTDI3LDMxYzAsMC0xLjgsMi01LDJzLTUtMi01LTJTNiwzMyw2LDQ0aDMyQzM4LDMzLDI3LDMxLDI3LDMxeiIvPiYjeGE7ICAgIDxnIGZpbGw9IiNGRjk4MDAiPiYjeGE7ICAgICAgICA8cmVjdCB4PSIzNi4xIiB5PSI2LjEiIHRyYW5zZm9ybT0ibWF0cml4KC43MDcgLjcwNyAtLjcwNyAuNzA3IDE5Ljc4NyAtMjUuNzcpIiB3aWR0aD0iOS45IiBoZWlnaHQ9IjkuOSIvPiYjeGE7ICAgICAgICA8cmVjdCB4PSIzNiIgeT0iNiIgd2lkdGg9IjEwIiBoZWlnaHQ9IjEwIi8+JiN4YTsgICAgPC9nPiYjeGE7ICAgIDxjaXJjbGUgZmlsbD0iI0ZGRUIzQiIgY3g9IjQxIiBjeT0iMTEiIHI9IjMiLz4mI3hhOzwvc3ZnPg==;" parent="1" vertex="1">
          <mxGeometry x="1087" y="560" width="48" height="48" as="geometry" />
        </mxCell>
        <mxCell id="A5XyS65-MMVEptwIIjuN-87" value="" style="endArrow=none;html=1;rounded=0;entryX=0.5;entryY=1;entryDx=0;entryDy=0;exitX=0.479;exitY=0;exitDx=0;exitDy=0;exitPerimeter=0;" parent="1" source="A5XyS65-MMVEptwIIjuN-86" edge="1">
          <mxGeometry width="50" height="50" relative="1" as="geometry">
            <mxPoint x="1035" y="560" as="sourcePoint" />
            <mxPoint x="1099" y="498" as="targetPoint" />
          </mxGeometry>
        </mxCell>
        <mxCell id="axStD_DV7LErkX4Y_dTy-1" value="&lt;div&gt;&lt;font style=&quot;font-size: 25px;&quot;&gt;&lt;b&gt;x&lt;/b&gt;&lt;/font&gt;&lt;/div&gt;&lt;font style=&quot;font-size: 25px;&quot;&gt;&lt;b&gt;15&lt;/b&gt;&lt;/font&gt;" style="text;strokeColor=none;align=center;fillColor=none;html=1;verticalAlign=middle;whiteSpace=wrap;rounded=0;" vertex="1" parent="1">
          <mxGeometry x="14" y="620" width="60" height="30" as="geometry" />
        </mxCell>
        <mxCell id="axStD_DV7LErkX4Y_dTy-2" value="&lt;div&gt;&lt;font style=&quot;font-size: 25px;&quot;&gt;&lt;b&gt;x&lt;/b&gt;&lt;/font&gt;&lt;/div&gt;&lt;span style=&quot;font-size: 25px;&quot;&gt;&lt;b&gt;30&lt;/b&gt;&lt;/span&gt;" style="text;strokeColor=none;align=center;fillColor=none;html=1;verticalAlign=middle;whiteSpace=wrap;rounded=0;" vertex="1" parent="1">
          <mxGeometry x="94" y="620" width="60" height="30" as="geometry" />
        </mxCell>
        <mxCell id="axStD_DV7LErkX4Y_dTy-3" value="&lt;div&gt;&lt;font style=&quot;font-size: 25px;&quot;&gt;&lt;b&gt;x&lt;/b&gt;&lt;/font&gt;&lt;/div&gt;&lt;font style=&quot;font-size: 25px;&quot;&gt;&lt;b&gt;15&lt;/b&gt;&lt;/font&gt;" style="text;strokeColor=none;align=center;fillColor=none;html=1;verticalAlign=middle;whiteSpace=wrap;rounded=0;" vertex="1" parent="1">
          <mxGeometry x="192" y="620" width="60" height="30" as="geometry" />
        </mxCell>
        <mxCell id="axStD_DV7LErkX4Y_dTy-4" value="&lt;div&gt;&lt;font style=&quot;font-size: 25px;&quot;&gt;&lt;b&gt;x&lt;/b&gt;&lt;/font&gt;&lt;/div&gt;&lt;font style=&quot;font-size: 25px;&quot;&gt;&lt;b&gt;15&lt;/b&gt;&lt;/font&gt;" style="text;strokeColor=none;align=center;fillColor=none;html=1;verticalAlign=middle;whiteSpace=wrap;rounded=0;" vertex="1" parent="1">
          <mxGeometry x="262" y="620" width="60" height="30" as="geometry" />
        </mxCell>
        <mxCell id="axStD_DV7LErkX4Y_dTy-5" value="&lt;div&gt;&lt;font style=&quot;font-size: 25px;&quot;&gt;&lt;b&gt;x&lt;/b&gt;&lt;/font&gt;&lt;/div&gt;&lt;font style=&quot;font-size: 25px;&quot;&gt;&lt;b&gt;15&lt;/b&gt;&lt;/font&gt;" style="text;strokeColor=none;align=center;fillColor=none;html=1;verticalAlign=middle;whiteSpace=wrap;rounded=0;" vertex="1" parent="1">
          <mxGeometry x="334" y="620" width="60" height="30" as="geometry" />
        </mxCell>
        <mxCell id="axStD_DV7LErkX4Y_dTy-6" value="&lt;div&gt;&lt;font style=&quot;font-size: 25px;&quot;&gt;&lt;b&gt;x&lt;/b&gt;&lt;/font&gt;&lt;/div&gt;&lt;span style=&quot;font-size: 25px;&quot;&gt;&lt;b&gt;30&lt;/b&gt;&lt;/span&gt;" style="text;strokeColor=none;align=center;fillColor=none;html=1;verticalAlign=middle;whiteSpace=wrap;rounded=0;" vertex="1" parent="1">
          <mxGeometry x="401" y="620" width="60" height="30" as="geometry" />
        </mxCell>
        <mxCell id="axStD_DV7LErkX4Y_dTy-7" value="&lt;div&gt;&lt;font style=&quot;font-size: 25px;&quot;&gt;&lt;b&gt;x&lt;/b&gt;&lt;/font&gt;&lt;/div&gt;&lt;font style=&quot;font-size: 25px;&quot;&gt;&lt;b&gt;15&lt;/b&gt;&lt;/font&gt;" style="text;strokeColor=none;align=center;fillColor=none;html=1;verticalAlign=middle;whiteSpace=wrap;rounded=0;" vertex="1" parent="1">
          <mxGeometry x="458.5" y="620" width="60" height="30" as="geometry" />
        </mxCell>
        <mxCell id="axStD_DV7LErkX4Y_dTy-8" value="&lt;div&gt;&lt;font style=&quot;font-size: 25px;&quot;&gt;&lt;b&gt;x&lt;/b&gt;&lt;/font&gt;&lt;/div&gt;&lt;font style=&quot;font-size: 25px;&quot;&gt;&lt;b&gt;15&lt;/b&gt;&lt;/font&gt;" style="text;strokeColor=none;align=center;fillColor=none;html=1;verticalAlign=middle;whiteSpace=wrap;rounded=0;" vertex="1" parent="1">
          <mxGeometry x="525" y="620" width="60" height="30" as="geometry" />
        </mxCell>
        <mxCell id="axStD_DV7LErkX4Y_dTy-9" value="&lt;div&gt;&lt;font style=&quot;font-size: 25px;&quot;&gt;&lt;b&gt;x&lt;/b&gt;&lt;/font&gt;&lt;/div&gt;&lt;font style=&quot;font-size: 25px;&quot;&gt;&lt;b&gt;15&lt;/b&gt;&lt;/font&gt;" style="text;strokeColor=none;align=center;fillColor=none;html=1;verticalAlign=middle;whiteSpace=wrap;rounded=0;" vertex="1" parent="1">
          <mxGeometry x="612" y="620" width="60" height="30" as="geometry" />
        </mxCell>
        <mxCell id="axStD_DV7LErkX4Y_dTy-10" value="&lt;div&gt;&lt;font style=&quot;font-size: 25px;&quot;&gt;&lt;b&gt;x&lt;/b&gt;&lt;/font&gt;&lt;/div&gt;&lt;span style=&quot;font-size: 25px;&quot;&gt;&lt;b&gt;30&lt;/b&gt;&lt;/span&gt;" style="text;strokeColor=none;align=center;fillColor=none;html=1;verticalAlign=middle;whiteSpace=wrap;rounded=0;" vertex="1" parent="1">
          <mxGeometry x="679" y="620" width="60" height="30" as="geometry" />
        </mxCell>
        <mxCell id="axStD_DV7LErkX4Y_dTy-11" value="&lt;div&gt;&lt;font style=&quot;font-size: 25px;&quot;&gt;&lt;b&gt;x&lt;/b&gt;&lt;/font&gt;&lt;/div&gt;&lt;font style=&quot;font-size: 25px;&quot;&gt;&lt;b&gt;15&lt;/b&gt;&lt;/font&gt;" style="text;strokeColor=none;align=center;fillColor=none;html=1;verticalAlign=middle;whiteSpace=wrap;rounded=0;" vertex="1" parent="1">
          <mxGeometry x="734" y="620" width="60" height="30" as="geometry" />
        </mxCell>
        <mxCell id="axStD_DV7LErkX4Y_dTy-12" value="&lt;div&gt;&lt;font style=&quot;font-size: 25px;&quot;&gt;&lt;b&gt;x&lt;/b&gt;&lt;/font&gt;&lt;/div&gt;&lt;font style=&quot;font-size: 25px;&quot;&gt;&lt;b&gt;15&lt;/b&gt;&lt;/font&gt;" style="text;strokeColor=none;align=center;fillColor=none;html=1;verticalAlign=middle;whiteSpace=wrap;rounded=0;" vertex="1" parent="1">
          <mxGeometry x="801" y="620" width="60" height="30" as="geometry" />
        </mxCell>
        <mxCell id="axStD_DV7LErkX4Y_dTy-13" value="&lt;div&gt;&lt;font style=&quot;font-size: 25px;&quot;&gt;&lt;b&gt;x&lt;/b&gt;&lt;/font&gt;&lt;/div&gt;&lt;font style=&quot;font-size: 25px;&quot;&gt;&lt;b&gt;15&lt;/b&gt;&lt;/font&gt;" style="text;strokeColor=none;align=center;fillColor=none;html=1;verticalAlign=middle;whiteSpace=wrap;rounded=0;" vertex="1" parent="1">
          <mxGeometry x="874" y="620" width="60" height="30" as="geometry" />
        </mxCell>
        <mxCell id="axStD_DV7LErkX4Y_dTy-14" value="&lt;div&gt;&lt;font style=&quot;font-size: 25px;&quot;&gt;&lt;b&gt;x&lt;/b&gt;&lt;/font&gt;&lt;/div&gt;&lt;span style=&quot;font-size: 25px;&quot;&gt;&lt;b&gt;30&lt;/b&gt;&lt;/span&gt;" style="text;strokeColor=none;align=center;fillColor=none;html=1;verticalAlign=middle;whiteSpace=wrap;rounded=0;" vertex="1" parent="1">
          <mxGeometry x="941" y="620" width="60" height="30" as="geometry" />
        </mxCell>
        <mxCell id="axStD_DV7LErkX4Y_dTy-15" value="&lt;div&gt;&lt;font style=&quot;font-size: 25px;&quot;&gt;&lt;b&gt;x&lt;/b&gt;&lt;/font&gt;&lt;/div&gt;&lt;font style=&quot;font-size: 25px;&quot;&gt;&lt;b&gt;15&lt;/b&gt;&lt;/font&gt;" style="text;strokeColor=none;align=center;fillColor=none;html=1;verticalAlign=middle;whiteSpace=wrap;rounded=0;" vertex="1" parent="1">
          <mxGeometry x="1014" y="620" width="60" height="30" as="geometry" />
        </mxCell>
        <mxCell id="axStD_DV7LErkX4Y_dTy-16" value="&lt;div&gt;&lt;font style=&quot;font-size: 25px;&quot;&gt;&lt;b&gt;x&lt;/b&gt;&lt;/font&gt;&lt;/div&gt;&lt;font style=&quot;font-size: 25px;&quot;&gt;&lt;b&gt;15&lt;/b&gt;&lt;/font&gt;" style="text;strokeColor=none;align=center;fillColor=none;html=1;verticalAlign=middle;whiteSpace=wrap;rounded=0;" vertex="1" parent="1">
          <mxGeometry x="1081" y="620" width="60" height="30" as="geometry" />
        </mxCell>
        <mxCell id="axStD_DV7LErkX4Y_dTy-19" style="edgeStyle=none;rounded=0;orthogonalLoop=1;jettySize=auto;html=1;sourcePerimeterSpacing=5;endArrow=none;endFill=0;targetPerimeterSpacing=5;dashed=1;" edge="1" parent="1">
          <mxGeometry relative="1" as="geometry">
            <mxPoint x="170" y="662" as="sourcePoint" />
            <mxPoint x="170" y="540" as="targetPoint" />
          </mxGeometry>
        </mxCell>
        <mxCell id="axStD_DV7LErkX4Y_dTy-20" style="edgeStyle=none;rounded=0;orthogonalLoop=1;jettySize=auto;html=1;sourcePerimeterSpacing=5;endArrow=none;endFill=0;targetPerimeterSpacing=5;strokeWidth=3;" edge="1" parent="1">
          <mxGeometry relative="1" as="geometry">
            <mxPoint x="334" y="662" as="sourcePoint" />
            <mxPoint x="334" y="540" as="targetPoint" />
          </mxGeometry>
        </mxCell>
        <mxCell id="axStD_DV7LErkX4Y_dTy-21" style="edgeStyle=none;rounded=0;orthogonalLoop=1;jettySize=auto;html=1;sourcePerimeterSpacing=5;endArrow=none;endFill=0;targetPerimeterSpacing=5;strokeWidth=3;" edge="1" parent="1">
          <mxGeometry relative="1" as="geometry">
            <mxPoint x="599.6600000000001" y="662" as="sourcePoint" />
            <mxPoint x="599.6600000000001" y="540" as="targetPoint" />
          </mxGeometry>
        </mxCell>
        <mxCell id="axStD_DV7LErkX4Y_dTy-22" style="edgeStyle=none;rounded=0;orthogonalLoop=1;jettySize=auto;html=1;sourcePerimeterSpacing=5;endArrow=none;endFill=0;targetPerimeterSpacing=5;strokeWidth=3;" edge="1" parent="1">
          <mxGeometry relative="1" as="geometry">
            <mxPoint x="864" y="662" as="sourcePoint" />
            <mxPoint x="864" y="540" as="targetPoint" />
          </mxGeometry>
        </mxCell>
        <mxCell id="axStD_DV7LErkX4Y_dTy-23" style="edgeStyle=none;rounded=0;orthogonalLoop=1;jettySize=auto;html=1;sourcePerimeterSpacing=5;endArrow=none;endFill=0;targetPerimeterSpacing=5;dashed=1;" edge="1" parent="1">
          <mxGeometry relative="1" as="geometry">
            <mxPoint x="737" y="662" as="sourcePoint" />
            <mxPoint x="737" y="540" as="targetPoint" />
          </mxGeometry>
        </mxCell>
        <mxCell id="axStD_DV7LErkX4Y_dTy-24" style="edgeStyle=none;rounded=0;orthogonalLoop=1;jettySize=auto;html=1;sourcePerimeterSpacing=5;endArrow=none;endFill=0;targetPerimeterSpacing=5;dashed=1;" edge="1" parent="1">
          <mxGeometry relative="1" as="geometry">
            <mxPoint x="458.5" y="662" as="sourcePoint" />
            <mxPoint x="458.5" y="540" as="targetPoint" />
          </mxGeometry>
        </mxCell>
        <mxCell id="axStD_DV7LErkX4Y_dTy-25" style="edgeStyle=none;rounded=0;orthogonalLoop=1;jettySize=auto;html=1;sourcePerimeterSpacing=5;endArrow=none;endFill=0;targetPerimeterSpacing=5;dashed=1;" edge="1" parent="1">
          <mxGeometry relative="1" as="geometry">
            <mxPoint x="1005" y="662" as="sourcePoint" />
            <mxPoint x="1005" y="540" as="targetPoint" />
          </mxGeometry>
        </mxCell>
        <mxCell id="axStD_DV7LErkX4Y_dTy-26" value="" style="shape=image;verticalLabelPosition=bottom;verticalAlign=top;imageAspect=0;aspect=fixed;image=data:image/svg+xml,PHN2ZyB4bWxucz0iaHR0cDovL3d3dy53My5vcmcvMjAwMC9zdmciIHZlcnNpb249IjEiIHZpZXdCb3g9IjAgMCA0OCA0OCIgZW5hYmxlLWJhY2tncm91bmQ9Im5ldyAwIDAgNDggNDgiPiYjeGE7ICAgIDxwYXRoIGZpbGw9IiNGRkEwMDAiIGQ9Ik0zOCwxMkgyMmwtNC00SDhjLTIuMiwwLTQsMS44LTQsNHYyNGMwLDIuMiwxLjgsNCw0LDRoMzFjMS43LDAsMy0xLjMsMy0zVjE2QzQyLDEzLjgsNDAuMiwxMiwzOCwxMnoiLz4mI3hhOyAgICA8cGF0aCBmaWxsPSIjRkZDQTI4IiBkPSJNNDIuMiwxOEgxNS4zYy0xLjksMC0zLjYsMS40LTMuOSwzLjNMOCw0MGgzMS43YzEuOSwwLDMuNi0xLjQsMy45LTMuM2wyLjUtMTRDNDYuNiwyMC4zLDQ0LjcsMTgsNDIuMiwxOHoiLz4mI3hhOzwvc3ZnPg==;" vertex="1" parent="1">
          <mxGeometry x="214" y="317" width="48" height="48" as="geometry" />
        </mxCell>
        <mxCell id="axStD_DV7LErkX4Y_dTy-27" value="" style="shape=image;verticalLabelPosition=bottom;verticalAlign=top;imageAspect=0;aspect=fixed;image=data:image/svg+xml,PHN2ZyB4bWxucz0iaHR0cDovL3d3dy53My5vcmcvMjAwMC9zdmciIHZlcnNpb249IjEiIHZpZXdCb3g9IjAgMCA0OCA0OCIgZW5hYmxlLWJhY2tncm91bmQ9Im5ldyAwIDAgNDggNDgiPiYjeGE7ICAgIDxwYXRoIGZpbGw9IiNGRkEwMDAiIGQ9Ik0zOCwxMkgyMmwtNC00SDhjLTIuMiwwLTQsMS44LTQsNHYyNGMwLDIuMiwxLjgsNCw0LDRoMzFjMS43LDAsMy0xLjMsMy0zVjE2QzQyLDEzLjgsNDAuMiwxMiwzOCwxMnoiLz4mI3hhOyAgICA8cGF0aCBmaWxsPSIjRkZDQTI4IiBkPSJNNDIuMiwxOEgxNS4zYy0xLjksMC0zLjYsMS40LTMuOSwzLjNMOCw0MGgzMS43YzEuOSwwLDMuNi0xLjQsMy45LTMuM2wyLjUtMTRDNDYuNiwyMC4zLDQ0LjcsMTgsNDIuMiwxOHoiLz4mI3hhOzwvc3ZnPg==;" vertex="1" parent="1">
          <mxGeometry x="450" y="317" width="48" height="48" as="geometry" />
        </mxCell>
        <mxCell id="axStD_DV7LErkX4Y_dTy-28" value="" style="shape=image;verticalLabelPosition=bottom;verticalAlign=top;imageAspect=0;aspect=fixed;image=data:image/svg+xml,PHN2ZyB4bWxucz0iaHR0cDovL3d3dy53My5vcmcvMjAwMC9zdmciIHZlcnNpb249IjEiIHZpZXdCb3g9IjAgMCA0OCA0OCIgZW5hYmxlLWJhY2tncm91bmQ9Im5ldyAwIDAgNDggNDgiPiYjeGE7ICAgIDxwYXRoIGZpbGw9IiNGRkEwMDAiIGQ9Ik0zOCwxMkgyMmwtNC00SDhjLTIuMiwwLTQsMS44LTQsNHYyNGMwLDIuMiwxLjgsNCw0LDRoMzFjMS43LDAsMy0xLjMsMy0zVjE2QzQyLDEzLjgsNDAuMiwxMiwzOCwxMnoiLz4mI3hhOyAgICA8cGF0aCBmaWxsPSIjRkZDQTI4IiBkPSJNNDIuMiwxOEgxNS4zYy0xLjksMC0zLjYsMS40LTMuOSwzLjNMOCw0MGgzMS43YzEuOSwwLDMuNi0xLjQsMy45LTMuM2wyLjUtMTRDNDYuNiwyMC4zLDQ0LjcsMTgsNDIuMiwxOHoiLz4mI3hhOzwvc3ZnPg==;" vertex="1" parent="1">
          <mxGeometry x="709" y="317" width="48" height="48" as="geometry" />
        </mxCell>
        <mxCell id="axStD_DV7LErkX4Y_dTy-29" value="" style="shape=image;verticalLabelPosition=bottom;verticalAlign=top;imageAspect=0;aspect=fixed;image=data:image/svg+xml,PHN2ZyB4bWxucz0iaHR0cDovL3d3dy53My5vcmcvMjAwMC9zdmciIHZlcnNpb249IjEiIHZpZXdCb3g9IjAgMCA0OCA0OCIgZW5hYmxlLWJhY2tncm91bmQ9Im5ldyAwIDAgNDggNDgiPiYjeGE7ICAgIDxwYXRoIGZpbGw9IiNGRkEwMDAiIGQ9Ik0zOCwxMkgyMmwtNC00SDhjLTIuMiwwLTQsMS44LTQsNHYyNGMwLDIuMiwxLjgsNCw0LDRoMzFjMS43LDAsMy0xLjMsMy0zVjE2QzQyLDEzLjgsNDAuMiwxMiwzOCwxMnoiLz4mI3hhOyAgICA8cGF0aCBmaWxsPSIjRkZDQTI4IiBkPSJNNDIuMiwxOEgxNS4zYy0xLjksMC0zLjYsMS40LTMuOSwzLjNMOCw0MGgzMS43YzEuOSwwLDMuNi0xLjQsMy45LTMuM2wyLjUtMTRDNDYuNiwyMC4zLDQ0LjcsMTgsNDIuMiwxOHoiLz4mI3hhOzwvc3ZnPg==;" vertex="1" parent="1">
          <mxGeometry x="910" y="317" width="48" height="48" as="geometry" />
        </mxCell>
        <mxCell id="axStD_DV7LErkX4Y_dTy-30" value="" style="shape=image;verticalLabelPosition=bottom;verticalAlign=top;imageAspect=0;aspect=fixed;image=data:image/svg+xml,PHN2ZyB4bWxucz0iaHR0cDovL3d3dy53My5vcmcvMjAwMC9zdmciIHZlcnNpb249IjEiIHZpZXdCb3g9IjAgMCA0OCA0OCIgZW5hYmxlLWJhY2tncm91bmQ9Im5ldyAwIDAgNDggNDgiPiYjeGE7ICAgIDxwYXRoIGZpbGw9IiNGRkEwMDAiIGQ9Ik0zOCwxMkgyMmwtNC00SDhjLTIuMiwwLTQsMS44LTQsNHYyNGMwLDIuMiwxLjgsNCw0LDRoMzFjMS43LDAsMy0xLjMsMy0zVjE2QzQyLDEzLjgsNDAuMiwxMiwzOCwxMnoiLz4mI3hhOyAgICA8cGF0aCBmaWxsPSIjRkZDQTI4IiBkPSJNNDIuMiwxOEgxNS4zYy0xLjksMC0zLjYsMS40LTMuOSwzLjNMOCw0MGgzMS43YzEuOSwwLDMuNi0xLjQsMy45LTMuM2wyLjUtMTRDNDYuNiwyMC4zLDQ0LjcsMTgsNDIuMiwxOHoiLz4mI3hhOzwvc3ZnPg==;" vertex="1" parent="1">
          <mxGeometry x="385" y="447" width="48" height="48" as="geometry" />
        </mxCell>
        <mxCell id="axStD_DV7LErkX4Y_dTy-31" value="" style="shape=image;verticalLabelPosition=bottom;verticalAlign=top;imageAspect=0;aspect=fixed;image=data:image/svg+xml,PHN2ZyB4bWxucz0iaHR0cDovL3d3dy53My5vcmcvMjAwMC9zdmciIHZlcnNpb249IjEiIHZpZXdCb3g9IjAgMCA0OCA0OCIgZW5hYmxlLWJhY2tncm91bmQ9Im5ldyAwIDAgNDggNDgiPiYjeGE7ICAgIDxwYXRoIGZpbGw9IiNGRkEwMDAiIGQ9Ik0zOCwxMkgyMmwtNC00SDhjLTIuMiwwLTQsMS44LTQsNHYyNGMwLDIuMiwxLjgsNCw0LDRoMzFjMS43LDAsMy0xLjMsMy0zVjE2QzQyLDEzLjgsNDAuMiwxMiwzOCwxMnoiLz4mI3hhOyAgICA8cGF0aCBmaWxsPSIjRkZDQTI4IiBkPSJNNDIuMiwxOEgxNS4zYy0xLjksMC0zLjYsMS40LTMuOSwzLjNMOCw0MGgzMS43YzEuOSwwLDMuNi0xLjQsMy45LTMuM2wyLjUtMTRDNDYuNiwyMC4zLDQ0LjcsMTgsNDIuMiwxOHoiLz4mI3hhOzwvc3ZnPg==;" vertex="1" parent="1">
          <mxGeometry x="262" y="450" width="48" height="48" as="geometry" />
        </mxCell>
        <mxCell id="axStD_DV7LErkX4Y_dTy-32" value="" style="shape=image;verticalLabelPosition=bottom;verticalAlign=top;imageAspect=0;aspect=fixed;image=data:image/svg+xml,PHN2ZyB4bWxucz0iaHR0cDovL3d3dy53My5vcmcvMjAwMC9zdmciIHZlcnNpb249IjEiIHZpZXdCb3g9IjAgMCA0OCA0OCIgZW5hYmxlLWJhY2tncm91bmQ9Im5ldyAwIDAgNDggNDgiPiYjeGE7ICAgIDxwYXRoIGZpbGw9IiNGRkEwMDAiIGQ9Ik0zOCwxMkgyMmwtNC00SDhjLTIuMiwwLTQsMS44LTQsNHYyNGMwLDIuMiwxLjgsNCw0LDRoMzFjMS43LDAsMy0xLjMsMy0zVjE2QzQyLDEzLjgsNDAuMiwxMiwzOCwxMnoiLz4mI3hhOyAgICA8cGF0aCBmaWxsPSIjRkZDQTI4IiBkPSJNNDIuMiwxOEgxNS4zYy0xLjksMC0zLjYsMS40LTMuOSwzLjNMOCw0MGgzMS43YzEuOSwwLDMuNi0xLjQsMy45LTMuM2wyLjUtMTRDNDYuNiwyMC4zLDQ0LjcsMTgsNDIuMiwxOHoiLz4mI3hhOzwvc3ZnPg==;" vertex="1" parent="1">
          <mxGeometry x="88" y="450" width="48" height="48" as="geometry" />
        </mxCell>
        <mxCell id="axStD_DV7LErkX4Y_dTy-34" value="" style="shape=image;verticalLabelPosition=bottom;verticalAlign=top;imageAspect=0;aspect=fixed;image=data:image/svg+xml,PHN2ZyB4bWxucz0iaHR0cDovL3d3dy53My5vcmcvMjAwMC9zdmciIHZlcnNpb249IjEiIHZpZXdCb3g9IjAgMCA0OCA0OCIgZW5hYmxlLWJhY2tncm91bmQ9Im5ldyAwIDAgNDggNDgiPiYjeGE7ICAgIDxwYXRoIGZpbGw9IiNGRkEwMDAiIGQ9Ik0zOCwxMkgyMmwtNC00SDhjLTIuMiwwLTQsMS44LTQsNHYyNGMwLDIuMiwxLjgsNCw0LDRoMzFjMS43LDAsMy0xLjMsMy0zVjE2QzQyLDEzLjgsNDAuMiwxMiwzOCwxMnoiLz4mI3hhOyAgICA8cGF0aCBmaWxsPSIjRkZDQTI4IiBkPSJNNDIuMiwxOEgxNS4zYy0xLjksMC0zLjYsMS40LTMuOSwzLjNMOCw0MGgzMS43YzEuOSwwLDMuNi0xLjQsMy45LTMuM2wyLjUtMTRDNDYuNiwyMC4zLDQ0LjcsMTgsNDIuMiwxOHoiLz4mI3hhOzwvc3ZnPg==;" vertex="1" parent="1">
          <mxGeometry x="506.5" y="450" width="48" height="48" as="geometry" />
        </mxCell>
        <mxCell id="axStD_DV7LErkX4Y_dTy-35" value="" style="shape=image;verticalLabelPosition=bottom;verticalAlign=top;imageAspect=0;aspect=fixed;image=data:image/svg+xml,PHN2ZyB4bWxucz0iaHR0cDovL3d3dy53My5vcmcvMjAwMC9zdmciIHZlcnNpb249IjEiIHZpZXdCb3g9IjAgMCA0OCA0OCIgZW5hYmxlLWJhY2tncm91bmQ9Im5ldyAwIDAgNDggNDgiPiYjeGE7ICAgIDxwYXRoIGZpbGw9IiNGRkEwMDAiIGQ9Ik0zOCwxMkgyMmwtNC00SDhjLTIuMiwwLTQsMS44LTQsNHYyNGMwLDIuMiwxLjgsNCw0LDRoMzFjMS43LDAsMy0xLjMsMy0zVjE2QzQyLDEzLjgsNDAuMiwxMiwzOCwxMnoiLz4mI3hhOyAgICA8cGF0aCBmaWxsPSIjRkZDQTI4IiBkPSJNNDIuMiwxOEgxNS4zYy0xLjksMC0zLjYsMS40LTMuOSwzLjNMOCw0MGgzMS43YzEuOSwwLDMuNi0xLjQsMy45LTMuM2wyLjUtMTRDNDYuNiwyMC4zLDQ0LjcsMTgsNDIuMiwxOHoiLz4mI3hhOzwvc3ZnPg==;" vertex="1" parent="1">
          <mxGeometry x="661" y="447" width="48" height="48" as="geometry" />
        </mxCell>
        <mxCell id="axStD_DV7LErkX4Y_dTy-36" value="" style="shape=image;verticalLabelPosition=bottom;verticalAlign=top;imageAspect=0;aspect=fixed;image=data:image/svg+xml,PHN2ZyB4bWxucz0iaHR0cDovL3d3dy53My5vcmcvMjAwMC9zdmciIHZlcnNpb249IjEiIHZpZXdCb3g9IjAgMCA0OCA0OCIgZW5hYmxlLWJhY2tncm91bmQ9Im5ldyAwIDAgNDggNDgiPiYjeGE7ICAgIDxwYXRoIGZpbGw9IiNGRkEwMDAiIGQ9Ik0zOCwxMkgyMmwtNC00SDhjLTIuMiwwLTQsMS44LTQsNHYyNGMwLDIuMiwxLjgsNCw0LDRoMzFjMS43LDAsMy0xLjMsMy0zVjE2QzQyLDEzLjgsNDAuMiwxMiwzOCwxMnoiLz4mI3hhOyAgICA8cGF0aCBmaWxsPSIjRkZDQTI4IiBkPSJNNDIuMiwxOEgxNS4zYy0xLjksMC0zLjYsMS40LTMuOSwzLjNMOCw0MGgzMS43YzEuOSwwLDMuNi0xLjQsMy45LTMuM2wyLjUtMTRDNDYuNiwyMC4zLDQ0LjcsMTgsNDIuMiwxOHoiLz4mI3hhOzwvc3ZnPg==;" vertex="1" parent="1">
          <mxGeometry x="779" y="447" width="48" height="48" as="geometry" />
        </mxCell>
        <mxCell id="axStD_DV7LErkX4Y_dTy-37" value="" style="shape=image;verticalLabelPosition=bottom;verticalAlign=top;imageAspect=0;aspect=fixed;image=data:image/svg+xml,PHN2ZyB4bWxucz0iaHR0cDovL3d3dy53My5vcmcvMjAwMC9zdmciIHZlcnNpb249IjEiIHZpZXdCb3g9IjAgMCA0OCA0OCIgZW5hYmxlLWJhY2tncm91bmQ9Im5ldyAwIDAgNDggNDgiPiYjeGE7ICAgIDxwYXRoIGZpbGw9IiNGRkEwMDAiIGQ9Ik0zOCwxMkgyMmwtNC00SDhjLTIuMiwwLTQsMS44LTQsNHYyNGMwLDIuMiwxLjgsNCw0LDRoMzFjMS43LDAsMy0xLjMsMy0zVjE2QzQyLDEzLjgsNDAuMiwxMiwzOCwxMnoiLz4mI3hhOyAgICA8cGF0aCBmaWxsPSIjRkZDQTI4IiBkPSJNNDIuMiwxOEgxNS4zYy0xLjksMC0zLjYsMS40LTMuOSwzLjNMOCw0MGgzMS43YzEuOSwwLDMuNi0xLjQsMy45LTMuM2wyLjUtMTRDNDYuNiwyMC4zLDQ0LjcsMTgsNDIuMiwxOHoiLz4mI3hhOzwvc3ZnPg==;" vertex="1" parent="1">
          <mxGeometry x="920" y="447" width="48" height="48" as="geometry" />
        </mxCell>
        <mxCell id="axStD_DV7LErkX4Y_dTy-38" value="" style="shape=image;verticalLabelPosition=bottom;verticalAlign=top;imageAspect=0;aspect=fixed;image=data:image/svg+xml,PHN2ZyB4bWxucz0iaHR0cDovL3d3dy53My5vcmcvMjAwMC9zdmciIHZlcnNpb249IjEiIHZpZXdCb3g9IjAgMCA0OCA0OCIgZW5hYmxlLWJhY2tncm91bmQ9Im5ldyAwIDAgNDggNDgiPiYjeGE7ICAgIDxwYXRoIGZpbGw9IiNGRkEwMDAiIGQ9Ik0zOCwxMkgyMmwtNC00SDhjLTIuMiwwLTQsMS44LTQsNHYyNGMwLDIuMiwxLjgsNCw0LDRoMzFjMS43LDAsMy0xLjMsMy0zVjE2QzQyLDEzLjgsNDAuMiwxMiwzOCwxMnoiLz4mI3hhOyAgICA8cGF0aCBmaWxsPSIjRkZDQTI4IiBkPSJNNDIuMiwxOEgxNS4zYy0xLjksMC0zLjYsMS40LTMuOSwzLjNMOCw0MGgzMS43YzEuOSwwLDMuNi0xLjQsMy45LTMuM2wyLjUtMTRDNDYuNiwyMC4zLDQ0LjcsMTgsNDIuMiwxOHoiLz4mI3hhOzwvc3ZnPg==;" vertex="1" parent="1">
          <mxGeometry x="1060" y="447" width="48" height="48" as="geometry" />
        </mxCell>
        <mxCell id="axStD_DV7LErkX4Y_dTy-39" value="&lt;b style=&quot;&quot;&gt;&lt;font style=&quot;font-size: 22px;&quot;&gt;DEPARTAMENTO&lt;/font&gt;&lt;/b&gt;" style="text;strokeColor=none;align=center;fillColor=none;html=1;verticalAlign=middle;whiteSpace=wrap;rounded=0;" vertex="1" parent="1">
          <mxGeometry x="826" y="80" width="60" height="30" as="geometry" />
        </mxCell>
        <mxCell id="axStD_DV7LErkX4Y_dTy-40" value="" style="shape=image;verticalLabelPosition=bottom;verticalAlign=top;imageAspect=0;aspect=fixed;image=data:image/svg+xml,PHN2ZyB4bWxucz0iaHR0cDovL3d3dy53My5vcmcvMjAwMC9zdmciIHZlcnNpb249IjEiIHZpZXdCb3g9IjAgMCA0OCA0OCIgZW5hYmxlLWJhY2tncm91bmQ9Im5ldyAwIDAgNDggNDgiPiYjeGE7ICAgIDxwYXRoIGZpbGw9IiNGRkEwMDAiIGQ9Ik0zOCwxMkgyMmwtNC00SDhjLTIuMiwwLTQsMS44LTQsNHYyNGMwLDIuMiwxLjgsNCw0LDRoMzFjMS43LDAsMy0xLjMsMy0zVjE2QzQyLDEzLjgsNDAuMiwxMiwzOCwxMnoiLz4mI3hhOyAgICA8cGF0aCBmaWxsPSIjRkZDQTI4IiBkPSJNNDIuMiwxOEgxNS4zYy0xLjksMC0zLjYsMS40LTMuOSwzLjNMOCw0MGgzMS43YzEuOSwwLDMuNi0xLjQsMy45LTMuM2wyLjUtMTRDNDYuNiwyMC4zLDQ0LjcsMTgsNDIuMiwxOHoiLz4mI3hhOzwvc3ZnPg==;" vertex="1" parent="1">
          <mxGeometry x="832" y="120" width="48" height="48" as="geometry" />
        </mxCell>
        <mxCell id="axStD_DV7LErkX4Y_dTy-41" style="edgeStyle=none;rounded=0;orthogonalLoop=1;jettySize=auto;html=1;sourcePerimeterSpacing=5;endArrow=none;endFill=0;targetPerimeterSpacing=5;exitX=1;exitY=0.5;exitDx=0;exitDy=0;entryX=0;entryY=0.5;entryDx=0;entryDy=0;" edge="1" parent="1" source="8--HhbSZYtI3ddgJnD71-10" target="axStD_DV7LErkX4Y_dTy-40">
          <mxGeometry relative="1" as="geometry">
            <mxPoint x="746.4000000000001" y="272" as="sourcePoint" />
            <mxPoint x="832" y="130" as="targetPoint" />
          </mxGeometry>
        </mxCell>
        <mxCell id="axStD_DV7LErkX4Y_dTy-43" style="edgeStyle=none;rounded=0;orthogonalLoop=1;jettySize=auto;html=1;sourcePerimeterSpacing=5;endArrow=none;endFill=0;targetPerimeterSpacing=5;exitX=1;exitY=0.5;exitDx=0;exitDy=0;entryX=0;entryY=0.75;entryDx=0;entryDy=0;" edge="1" parent="1" target="axStD_DV7LErkX4Y_dTy-44">
          <mxGeometry relative="1" as="geometry">
            <mxPoint x="880" y="143.41" as="sourcePoint" />
            <mxPoint x="970" y="120" as="targetPoint" />
          </mxGeometry>
        </mxCell>
        <mxCell id="axStD_DV7LErkX4Y_dTy-44" value="" style="shape=image;verticalLabelPosition=bottom;verticalAlign=top;imageAspect=0;aspect=fixed;image=data:image/svg+xml,PHN2ZyB4bWxucz0iaHR0cDovL3d3dy53My5vcmcvMjAwMC9zdmciIHZlcnNpb249IjEiIHZpZXdCb3g9IjAgMCA0OCA0OCIgZW5hYmxlLWJhY2tncm91bmQ9Im5ldyAwIDAgNDggNDgiPiYjeGE7ICAgIDxwYXRoIGZpbGw9IiNGRjk4MDAiIGQ9Ik0yMiwzOGMtNC44LDAtNS03LTUtN3YtNmgxMHY2QzI3LDMxLDI2LjgsMzgsMjIsMzh6Ii8+JiN4YTsgICAgPGcgZmlsbD0iI0ZGQTcyNiI+JiN4YTsgICAgICAgIDxjaXJjbGUgY3g9IjMxIiBjeT0iMTkiIHI9IjIiLz4mI3hhOyAgICAgICAgPGNpcmNsZSBjeD0iMTMiIGN5PSIxOSIgcj0iMiIvPiYjeGE7ICAgIDwvZz4mI3hhOyAgICA8cGF0aCBmaWxsPSIjRkZCNzREIiBkPSJNMzEsMTNjMC03LjYtMTgtNS0xOCwwYzAsMS4xLDAsNS45LDAsN2MwLDUsNCw5LDksOXM5LTQsOS05QzMxLDE4LjksMzEsMTQuMSwzMSwxM3oiLz4mI3hhOyAgICA8cGF0aCBmaWxsPSIjNDI0MjQyIiBkPSJNMjIsNGMtNi4xLDAtMTAsNC45LTEwLDExYzAsMC44LDAsMi4zLDAsMi4zbDIsMS43di01bDEyLTRsNCw0djVsMi0xLjdjMCwwLDAtMS41LDAtMi4zYzAtNC0xLTgtNi05bC0xLTIgSDIyeiIvPiYjeGE7ICAgIDxnIGZpbGw9IiM3ODQ3MTkiPiYjeGE7ICAgICAgICA8Y2lyY2xlIGN4PSIyNiIgY3k9IjE5IiByPSIxIi8+JiN4YTsgICAgICAgIDxjaXJjbGUgY3g9IjE4IiBjeT0iMTkiIHI9IjEiLz4mI3hhOyAgICA8L2c+JiN4YTsgICAgPHBhdGggZmlsbD0iIzAwOTY4OCIgZD0iTTI3LDMxTDI3LDMxYzAsMC0xLjgsMi01LDJzLTUtMi01LTJTNiwzMyw2LDQ0aDMyQzM4LDMzLDI3LDMxLDI3LDMxeiIvPiYjeGE7ICAgIDxnIGZpbGw9IiNGRjk4MDAiPiYjeGE7ICAgICAgICA8cmVjdCB4PSIzNi4xIiB5PSI2LjEiIHRyYW5zZm9ybT0ibWF0cml4KC43MDcgLjcwNyAtLjcwNyAuNzA3IDE5Ljc4NyAtMjUuNzcpIiB3aWR0aD0iOS45IiBoZWlnaHQ9IjkuOSIvPiYjeGE7ICAgICAgICA8cmVjdCB4PSIzNiIgeT0iNiIgd2lkdGg9IjEwIiBoZWlnaHQ9IjEwIi8+JiN4YTsgICAgPC9nPiYjeGE7ICAgIDxjaXJjbGUgZmlsbD0iI0ZGRUIzQiIgY3g9IjQxIiBjeT0iMTEiIHI9IjMiLz4mI3hhOzwvc3ZnPg==;" vertex="1" parent="1">
          <mxGeometry x="972" y="80" width="48" height="48" as="geometry" />
        </mxCell>
        <mxCell id="axStD_DV7LErkX4Y_dTy-45" value="" style="shape=image;verticalLabelPosition=bottom;verticalAlign=top;imageAspect=0;aspect=fixed;image=data:image/svg+xml,PHN2ZyB4bWxucz0iaHR0cDovL3d3dy53My5vcmcvMjAwMC9zdmciIHZlcnNpb249IjEiIHZpZXdCb3g9IjAgMCA0OCA0OCIgZW5hYmxlLWJhY2tncm91bmQ9Im5ldyAwIDAgNDggNDgiPiYjeGE7ICAgIDxwYXRoIGZpbGw9IiM1NDZFN0EiIGQ9Ik00NCwzMEg0VjExYzAtMi4yLDEuOC00LDQtNGgzMmMyLjIsMCw0LDEuOCw0LDRWMzB6Ii8+JiN4YTsgICAgPHBhdGggZmlsbD0iIzY0QjVGNiIgZD0iTTQwLDI3SDhjLTAuNiwwLTEtMC40LTEtMVYxMWMwLTAuNiwwLjQtMSwxLTFoMzJjMC42LDAsMSwwLjQsMSwxdjE1QzQxLDI2LjYsNDAuNiwyNyw0MCwyN3oiLz4mI3hhOyAgICA8cGF0aCBmaWxsPSIjNzg5MDlDIiBkPSJNNDAsNDFIOGMtMi4yLDAtNC0xLjgtNC00di03aDQwdjdDNDQsMzkuMiw0Mi4yLDQxLDQwLDQxeiIvPiYjeGE7ICAgIDxnIGZpbGw9IiMzNzQ3NEYiPiYjeGE7ICAgICAgICA8cmVjdCB4PSIyNyIgeT0iMzQiIHdpZHRoPSIxMiIgaGVpZ2h0PSIyIi8+JiN4YTsgICAgICAgIDxyZWN0IHg9IjkiIHk9IjM0IiB3aWR0aD0iMTIiIGhlaWdodD0iMiIvPiYjeGE7ICAgICAgICA8cGF0aCBkPSJNMTgsMzVjMCwxLjEtMS4zLDItMywycy0zLTAuOS0zLTJIMTh6Ii8+JiN4YTsgICAgPC9nPiYjeGE7PC9zdmc+;" vertex="1" parent="1">
          <mxGeometry x="966" y="160" width="48" height="48" as="geometry" />
        </mxCell>
        <mxCell id="axStD_DV7LErkX4Y_dTy-46" style="edgeStyle=none;rounded=0;orthogonalLoop=1;jettySize=auto;html=1;sourcePerimeterSpacing=5;endArrow=none;endFill=0;targetPerimeterSpacing=5;exitX=1;exitY=0.75;exitDx=0;exitDy=0;entryX=0;entryY=0.5;entryDx=0;entryDy=0;" edge="1" parent="1" source="axStD_DV7LErkX4Y_dTy-40" target="axStD_DV7LErkX4Y_dTy-45">
          <mxGeometry relative="1" as="geometry">
            <mxPoint x="858" y="208" as="sourcePoint" />
            <mxPoint x="950" y="180" as="targetPoint" />
          </mxGeometry>
        </mxCell>
        <mxCell id="axStD_DV7LErkX4Y_dTy-48" value="&lt;div&gt;&lt;font style=&quot;font-size: 25px;&quot;&gt;&lt;b&gt;x&amp;nbsp;&lt;/b&gt;&lt;/font&gt;&lt;b style=&quot;font-size: 25px; background-color: transparent; color: light-dark(rgb(0, 0, 0), rgb(255, 255, 255));&quot;&gt;15&lt;/b&gt;&lt;/div&gt;" style="text;strokeColor=none;align=center;fillColor=none;html=1;verticalAlign=middle;whiteSpace=wrap;rounded=0;" vertex="1" parent="1">
          <mxGeometry x="1018" y="90" width="60" height="30" as="geometry" />
        </mxCell>
        <mxCell id="axStD_DV7LErkX4Y_dTy-50" value="&lt;div&gt;&lt;font style=&quot;font-size: 25px;&quot;&gt;&lt;b&gt;x&amp;nbsp;&lt;/b&gt;&lt;/font&gt;&lt;b style=&quot;font-size: 25px; background-color: transparent; color: light-dark(rgb(0, 0, 0), rgb(255, 255, 255));&quot;&gt;15&lt;/b&gt;&lt;/div&gt;" style="text;strokeColor=none;align=center;fillColor=none;html=1;verticalAlign=middle;whiteSpace=wrap;rounded=0;" vertex="1" parent="1">
          <mxGeometry x="1018" y="170" width="60" height="30" as="geometry" />
        </mxCell>
      </root>
    </mxGraphModel>
  </diagram>
</mxfile>
